<svg xmlns="http://www.w3.org/2000/svg" width="879.32" height="749.46" viewBox="0 0 879.32 749.46">
  <g id="Group_15" data-name="Group 15" transform="translate(-314.232 -3982.434)">
    <g id="Complex_dashboard" data-name="Complex dashboard" transform="translate(-109.088 3671.684)">
      <path id="Path_51" data-name="Path 51" d="M925.87,989.12h0Z" fill="#b2b6bb"/>
      <path id="Path_60" data-name="Path 60" d="M1246.49,1059.51h0Z" fill="#dadddf"/>
      <path id="Path_84" data-name="Path 84" d="M1146.93,310.75H448.77a17.18,17.18,0,0,0-17.18,17.18V847.51a17.18,17.18,0,0,0,17.18,17.18h698.16a17.179,17.179,0,0,0,17.18-17.18V327.93A17.179,17.179,0,0,0,1146.93,310.75Z" fill="#bbc392"/>
      <path id="Path_85" data-name="Path 85" d="M1146.93,310.75H448.77a17.18,17.18,0,0,0-17.18,17.18V847.51a17.18,17.18,0,0,0,17.18,17.18h698.16a17.179,17.179,0,0,0,17.18-17.18V327.93A17.179,17.179,0,0,0,1146.93,310.75Z" fill="#fff" opacity="0.6"/>
      <path id="Path_86" data-name="Path 86" d="M1138.66,310.75H440.5a17.18,17.18,0,0,0-17.18,17.18V847.51a17.18,17.18,0,0,0,17.18,17.18h698.16a17.179,17.179,0,0,0,17.18-17.18V327.93A17.179,17.179,0,0,0,1138.66,310.75Z" fill="#fff"/>
      <path id="Path_87" data-name="Path 87" d="M440.5,310.75h39.86V864.7H440.5a17.18,17.18,0,0,1-17.18-17.18V327.93a17.18,17.18,0,0,1,17.18-17.18Z" fill="#243746"/>
      <path id="Path_88" data-name="Path 88" d="M463.66,337.309H440.02a3.355,3.355,0,1,0,0,6.71h23.64a3.355,3.355,0,1,0,0-6.71Z" fill="#fff"/>
      <path id="Path_89" data-name="Path 89" d="M458.05,385.1H445.64a2.93,2.93,0,0,0-2.93,2.93v12.41a2.93,2.93,0,0,0,2.93,2.93h12.41a2.93,2.93,0,0,0,2.93-2.93V388.03A2.93,2.93,0,0,0,458.05,385.1Z" fill="#fff"/>
      <path id="Path_90" data-name="Path 90" d="M458.05,444.42H445.64a2.93,2.93,0,0,0-2.93,2.93v12.41a2.93,2.93,0,0,0,2.93,2.93h12.41a2.93,2.93,0,0,0,2.93-2.93V447.35A2.93,2.93,0,0,0,458.05,444.42Z" fill="#bbc392"/>
      <path id="Path_91" data-name="Path 91" d="M458.05,503.75H445.64a2.93,2.93,0,0,0-2.93,2.93v12.41a2.93,2.93,0,0,0,2.93,2.93h12.41a2.93,2.93,0,0,0,2.93-2.93V506.68A2.93,2.93,0,0,0,458.05,503.75Z" fill="#bbc392"/>
      <path id="Path_92" data-name="Path 92" d="M458.05,563.068H445.64a2.93,2.93,0,0,0-2.93,2.93v12.41a2.93,2.93,0,0,0,2.93,2.93h12.41a2.93,2.93,0,0,0,2.93-2.93V566A2.93,2.93,0,0,0,458.05,563.068Z" fill="#bbc392"/>
      <path id="Path_93" data-name="Path 93" d="M458.05,444.42H445.64a2.93,2.93,0,0,0-2.93,2.93v12.41a2.93,2.93,0,0,0,2.93,2.93h12.41a2.93,2.93,0,0,0,2.93-2.93V447.35A2.93,2.93,0,0,0,458.05,444.42Z" fill="#fff" opacity="0.4"/>
      <path id="Path_94" data-name="Path 94" d="M458.05,503.75H445.64a2.93,2.93,0,0,0-2.93,2.93v12.41a2.93,2.93,0,0,0,2.93,2.93h12.41a2.93,2.93,0,0,0,2.93-2.93V506.68A2.93,2.93,0,0,0,458.05,503.75Z" fill="#fff" opacity="0.4"/>
      <path id="Path_95" data-name="Path 95" d="M458.05,563.068H445.64a2.93,2.93,0,0,0-2.93,2.93v12.41a2.93,2.93,0,0,0,2.93,2.93h12.41a2.93,2.93,0,0,0,2.93-2.93V566A2.93,2.93,0,0,0,458.05,563.068Z" fill="#fff" opacity="0.4"/>
      <path id="Path_96" data-name="Path 96" d="M571.68,334.529H502.94a5.82,5.82,0,0,0,0,11.64h68.74a5.82,5.82,0,1,0,0-11.64Z" fill="#868a91"/>
      <path id="Path_97" data-name="Path 97" d="M1132.46,329.09h-60.69a3.44,3.44,0,0,0-3.44,3.44v15.64a3.44,3.44,0,0,0,3.44,3.44h60.69a3.44,3.44,0,0,0,3.44-3.44V332.53A3.44,3.44,0,0,0,1132.46,329.09Z" fill="#bbc392"/>
      <path id="Path_98" data-name="Path 98" d="M1046.39,329.09H985.7a3.44,3.44,0,0,0-3.44,3.44v15.64a3.44,3.44,0,0,0,3.44,3.44h60.689a3.44,3.44,0,0,0,3.44-3.44V332.53A3.44,3.44,0,0,0,1046.39,329.09Z" fill="none" stroke="#4d61fc" stroke-miterlimit="10" stroke-width="1"/>
      <path id="Path_99" data-name="Path 99" d="M467.58,822.745a15.735,15.735,0,1,0-15.735,15.735A15.735,15.735,0,0,0,467.58,822.745Z" fill="#fff"/>
      <path id="Path_100" data-name="Path 100" d="M451.85,823.208a4.552,4.552,0,0,1-4.53-4.12l-.3-3.27a4.54,4.54,0,0,1,4.52-5h.61a4.539,4.539,0,0,1,4.52,5l-.3,3.27a4.548,4.548,0,0,1-4.52,4.12Z" fill="#bbc392"/>
      <path id="Path_101" data-name="Path 101" d="M465.171,831.12a15.058,15.058,0,0,1-2.2,2.76,15.729,15.729,0,0,1-24.45-2.76,7.81,7.81,0,0,1,7.63-6.12h11.39a7.813,7.813,0,0,1,7.63,6.12Z" fill="#bbc392"/>
      <g id="Group_9" data-name="Group 9" opacity="0.4">
        <path id="Path_102" data-name="Path 102" d="M451.85,823.208a4.552,4.552,0,0,1-4.53-4.12l-.3-3.27a4.54,4.54,0,0,1,4.52-5h.61a4.539,4.539,0,0,1,4.52,5l-.3,3.27a4.548,4.548,0,0,1-4.52,4.12Z" fill="#fff" opacity="0.4"/>
        <path id="Path_103" data-name="Path 103" d="M465.171,831.118a15.058,15.058,0,0,1-2.2,2.76,15.729,15.729,0,0,1-24.45-2.76,7.81,7.81,0,0,1,7.63-6.12h11.39a7.813,7.813,0,0,1,7.63,6.12Z" fill="#fff" opacity="0.4"/>
      </g>
      <path id="Path_104" data-name="Path 104" d="M692.11,374.24h-186a8.99,8.99,0,0,0-8.99,8.99V481.6a8.99,8.99,0,0,0,8.99,8.99h186a8.99,8.99,0,0,0,8.99-8.99V383.23A8.99,8.99,0,0,0,692.11,374.24Z" fill="#bbc392"/>
      <path id="Path_105" data-name="Path 105" d="M692.11,374.24h-186a8.99,8.99,0,0,0-8.99,8.99V481.6a8.99,8.99,0,0,0,8.99,8.99h186a8.99,8.99,0,0,0,8.99-8.99V383.23A8.99,8.99,0,0,0,692.11,374.24Z" fill="#fff" opacity="0.5"/>
      <path id="Path_106" data-name="Path 106" d="M638.821,440.219H524.131a4.49,4.49,0,0,0-4.49,4.49v14.01a4.49,4.49,0,0,0,4.49,4.49h114.69a4.49,4.49,0,0,0,4.49-4.49v-14.01A4.49,4.49,0,0,0,638.821,440.219Z" fill="#fff"/>
      <path id="Path_107" data-name="Path 107" d="M663.51,409.988H569.67a3.93,3.93,0,0,0,0,7.86h93.84a3.93,3.93,0,0,0,0-7.86Z" fill="#bbc392"/>
      <path id="Path_108" data-name="Path 108" d="M663.51,409.988H569.67a3.93,3.93,0,0,0,0,7.86h93.84a3.93,3.93,0,0,0,0-7.86Z" fill="#fff" opacity="0.3"/>
      <path id="Path_109" data-name="Path 109" d="M535.691,429.969a16.05,16.05,0,1,0-16.05-16.05A16.05,16.05,0,0,0,535.691,429.969Z" fill="#bbc392"/>
      <path id="Path_110" data-name="Path 110" d="M535.691,429.969a16.05,16.05,0,1,0-16.05-16.05A16.05,16.05,0,0,0,535.691,429.969Z" fill="#fff" opacity="0.3"/>
      <path id="Path_111" data-name="Path 111" d="M909.441,374.449H723.781a8.97,8.97,0,0,0-8.97,8.97v98.19a8.97,8.97,0,0,0,8.97,8.97h185.66a8.97,8.97,0,0,0,8.97-8.97v-98.19A8.97,8.97,0,0,0,909.441,374.449Z" fill="#bbc392"/>
      <path id="Path_112" data-name="Path 112" d="M856.25,440.309H741.77a4.48,4.48,0,0,0-4.48,4.48v13.99a4.48,4.48,0,0,0,4.48,4.48H856.25a4.48,4.48,0,0,0,4.48-4.48v-13.99A4.48,4.48,0,0,0,856.25,440.309Z" fill="#fff"/>
      <path id="Path_113" data-name="Path 113" d="M880.891,410.139h-93.67a3.92,3.92,0,0,0,0,7.84h93.67a3.92,3.92,0,0,0,0-7.84Z" fill="#bbc392"/>
      <path id="Path_114" data-name="Path 114" d="M880.891,410.139h-93.67a3.92,3.92,0,0,0,0,7.84h93.67a3.92,3.92,0,0,0,0-7.84Z" fill="#fff" opacity="0.3"/>
      <path id="Path_115" data-name="Path 115" d="M753.31,430.089a16.02,16.02,0,1,0-16.02-16.02A16.02,16.02,0,0,0,753.31,430.089Z" fill="#bbc392"/>
      <path id="Path_116" data-name="Path 116" d="M753.31,430.089a16.02,16.02,0,1,0-16.02-16.02A16.02,16.02,0,0,0,753.31,430.089Z" fill="#fff" opacity="0.3"/>
      <path id="Path_117" data-name="Path 117" d="M1126.94,374.449H941.281a8.97,8.97,0,0,0-8.97,8.97v98.19a8.97,8.97,0,0,0,8.97,8.97H1126.94a8.973,8.973,0,0,0,8.97-8.97v-98.19A8.973,8.973,0,0,0,1126.94,374.449Z" fill="#b2b6bb"/>
      <path id="Path_118" data-name="Path 118" d="M1073.75,440.309H959.27a4.48,4.48,0,0,0-4.48,4.48v13.99a4.48,4.48,0,0,0,4.48,4.48h114.48a4.483,4.483,0,0,0,4.48-4.48v-13.99A4.482,4.482,0,0,0,1073.75,440.309Z" fill="#fff"/>
      <path id="Path_119" data-name="Path 119" d="M1098.39,410.139h-93.67a3.92,3.92,0,0,0,0,7.84h93.67a3.92,3.92,0,1,0,0-7.84Z" fill="#bbc392"/>
      <path id="Path_120" data-name="Path 120" d="M1098.39,410.139h-93.67a3.92,3.92,0,0,0,0,7.84h93.67a3.92,3.92,0,1,0,0-7.84Z" fill="#868a91"/>
      <path id="Path_121" data-name="Path 121" d="M970.81,430.089a16.02,16.02,0,1,0-16.02-16.02A16.02,16.02,0,0,0,970.81,430.089Z" fill="#868a91"/>
      <path id="Path_122" data-name="Path 122" d="M1126.94,504.33H941.281a8.97,8.97,0,0,0-8.97,8.97V753.9a8.97,8.97,0,0,0,8.97,8.97H1126.94a8.973,8.973,0,0,0,8.97-8.97V513.3A8.973,8.973,0,0,0,1126.94,504.33Z" fill="#bbc392"/>
      <path id="Path_123" data-name="Path 123" d="M1126.94,504.33H941.281a8.97,8.97,0,0,0-8.97,8.97V753.9a8.97,8.97,0,0,0,8.97,8.97H1126.94a8.973,8.973,0,0,0,8.97-8.97V513.3A8.973,8.973,0,0,0,1126.94,504.33Z" fill="#fff" opacity="0.85"/>
      <path id="Path_124" data-name="Path 124" d="M1080.47,568.18l-.92-1-17.24,16.09.92,1a39.85,39.85,0,0,1-54.64,57.82l-1-.87-15.079,18.11,1,.87a63.429,63.429,0,0,0,87-92Z" fill="#bbc392"/>
      <path id="Path_125" data-name="Path 125" d="M1080.47,568.18l-.92-1-17.24,16.09.92,1a39.85,39.85,0,0,1-54.64,57.82l-1-.87-15.079,18.11,1,.87a63.429,63.429,0,0,0,87-92Z" fill="#fff" opacity="0.5"/>
      <path id="Path_126" data-name="Path 126" d="M1080.47,568.179a63.242,63.242,0,0,0-28-17.42h0l-1.3-.37-1.28-.36a63.409,63.409,0,0,0-59.8,15.75l-1,.93,16.35,17,1-.94a39.636,39.636,0,0,1,27.64-11.14,39.566,39.566,0,0,1,29.11,12.66l.93,1,17.24-16.09Z" fill="#bbc392"/>
      <path id="Path_127" data-name="Path 127" d="M1008.59,642.088a39.892,39.892,0,0,1-2.13-59.34l1-.93-16.349-17-1,.94a63.4,63.4,0,0,0,3.39,94.42l1,.86L1009.63,643Z" fill="#61656d"/>
      <path id="Path_128" data-name="Path 128" d="M1048.86,602.139h-29.5a5.07,5.07,0,0,0-5.07,5.07v8.51a5.07,5.07,0,0,0,5.07,5.07h29.5a5.07,5.07,0,0,0,5.07-5.07v-8.51A5.07,5.07,0,0,0,1048.86,602.139Z" fill="#bbc392"/>
      <path id="Path_129" data-name="Path 129" d="M1048.86,602.139h-29.5a5.07,5.07,0,0,0-5.07,5.07v8.51a5.07,5.07,0,0,0,5.07,5.07h29.5a5.07,5.07,0,0,0,5.07-5.07v-8.51A5.07,5.07,0,0,0,1048.86,602.139Z" fill="#fff" opacity="0.4"/>
      <path id="Path_130" data-name="Path 130" d="M647.14,776.309H508.71a4.29,4.29,0,0,0-4.29,4.29v59.21a4.29,4.29,0,0,0,4.29,4.29H647.14a4.29,4.29,0,0,0,4.29-4.29V780.6A4.29,4.29,0,0,0,647.14,776.309Z" fill="#bbc392"/>
      <path id="Path_131" data-name="Path 131" d="M808.63,776.309H670.2a4.29,4.29,0,0,0-4.29,4.29v59.21a4.29,4.29,0,0,0,4.29,4.29H808.63a4.29,4.29,0,0,0,4.29-4.29V780.6A4.29,4.29,0,0,0,808.63,776.309Z" fill="#bbc392"/>
      <path id="Path_132" data-name="Path 132" d="M970.13,776.309H831.7a4.29,4.29,0,0,0-4.29,4.29v59.21a4.29,4.29,0,0,0,4.29,4.29H970.13a4.29,4.29,0,0,0,4.29-4.29V780.6A4.29,4.29,0,0,0,970.13,776.309Z" fill="#bbc392"/>
      <path id="Path_133" data-name="Path 133" d="M1131.62,776.309H993.19a4.29,4.29,0,0,0-4.29,4.29v59.21a4.29,4.29,0,0,0,4.29,4.29h138.43a4.29,4.29,0,0,0,4.29-4.29V780.6A4.289,4.289,0,0,0,1131.62,776.309Z" fill="#bbc392"/>
      <g id="Group_10" data-name="Group 10" opacity="0.85">
        <path id="Path_134" data-name="Path 134" d="M647.14,776.309H508.71a4.29,4.29,0,0,0-4.29,4.29v59.21a4.29,4.29,0,0,0,4.29,4.29H647.14a4.29,4.29,0,0,0,4.29-4.29V780.6A4.29,4.29,0,0,0,647.14,776.309Z" fill="#fff" opacity="0.85"/>
      </g>
      <g id="Group_11" data-name="Group 11" opacity="0.85">
        <path id="Path_135" data-name="Path 135" d="M808.63,776.309H670.2a4.29,4.29,0,0,0-4.29,4.29v59.21a4.29,4.29,0,0,0,4.29,4.29H808.63a4.29,4.29,0,0,0,4.29-4.29V780.6A4.29,4.29,0,0,0,808.63,776.309Z" fill="#fff" opacity="0.85"/>
      </g>
      <g id="Group_12" data-name="Group 12" opacity="0.85">
        <path id="Path_136" data-name="Path 136" d="M970.13,776.309H831.7a4.29,4.29,0,0,0-4.29,4.29v59.21a4.29,4.29,0,0,0,4.29,4.29H970.13a4.29,4.29,0,0,0,4.29-4.29V780.6A4.29,4.29,0,0,0,970.13,776.309Z" fill="#fff" opacity="0.85"/>
      </g>
      <g id="Group_13" data-name="Group 13" opacity="0.85">
        <path id="Path_137" data-name="Path 137" d="M1131.62,776.309H993.19a4.29,4.29,0,0,0-4.29,4.29v59.21a4.29,4.29,0,0,0,4.29,4.29h138.43a4.29,4.29,0,0,0,4.29-4.29V780.6A4.289,4.289,0,0,0,1131.62,776.309Z" fill="#fff" opacity="0.85"/>
      </g>
      <path id="Path_138" data-name="Path 138" d="M909.33,504.33H508.83a8.97,8.97,0,0,0-8.97,8.97V753.84a8.97,8.97,0,0,0,8.97,8.97h400.5a8.97,8.97,0,0,0,8.97-8.97V513.3A8.97,8.97,0,0,0,909.33,504.33Z" fill="#bbc392"/>
      <path id="Path_139" data-name="Path 139" d="M909.33,504.33H508.83a8.97,8.97,0,0,0-8.97,8.97V753.84a8.97,8.97,0,0,0,8.97,8.97h400.5a8.97,8.97,0,0,0,8.97-8.97V513.3A8.97,8.97,0,0,0,909.33,504.33Z" fill="#fff" opacity="0.85"/>
      <path id="Path_140" data-name="Path 140" d="M918.3,691.109H500.08v.91H918.3Z" fill="#bbc392" opacity="0.2"/>
      <path id="Path_141" data-name="Path 141" d="M918.3,621.379H500.08v.91H918.3Z" fill="#bbc392" opacity="0.2"/>
      <path id="Path_142" data-name="Path 142" d="M918.3,551.639H500.08v.91H918.3Z" fill="#bbc392" opacity="0.2"/>
      <path id="Path_143" data-name="Path 143" d="M500.08,656.619s59.17,22.06,101.29,0,87.59-72.4,149.44-20.06c51.44,43.54,75.89-52.34,110-52.34s57.5,64.7,57.5,64.7v104.92a9,9,0,0,1-9,9H508.84a9,9,0,0,1-9-9Z" fill="#bbc392" opacity="0.4"/>
      <path id="Path_144" data-name="Path 144" d="M556.211,667.329a158.6,158.6,0,0,1-21.41-1.53,182.76,182.76,0,0,1-35-8.33l.64-1.71a181.8,181.8,0,0,0,34.65,8.24c18.16,2.49,44.32,3.1,65.86-8.18,7.86-4.12,15.74-9.16,24.07-14.5,35.45-22.69,75.62-48.41,126.38-5.45,9.72,8.22,18.84,11.82,27.9,11,16.81-1.51,30.45-18.07,43.65-34.08,12.5-15.16,24.3-29.49,37.85-29.49,34.34,0,57.39,62.65,58.36,65.31l-1.72.62a193.587,193.587,0,0,0-15.9-32.2c-16.49-26.37-31.26-31.9-40.74-31.9-12.69,0-24.22,14-36.44,28.83-13.43,16.3-27.32,33.15-44.9,34.73-9.55.86-19.13-2.88-29.24-11.43-22.22-18.81-44.22-25.86-67.38-21.54-20.41,3.81-38.93,15.67-56.83,27.13-8.37,5.36-16.28,10.42-24.21,14.57C592.491,662.3,577.681,667.329,556.211,667.329Z" fill="#bbc392"/>
      <path id="Path_145" data-name="Path 145" d="M708.7,617.379a2.96,2.96,0,1,0-2.96-2.96A2.96,2.96,0,0,0,708.7,617.379Z" fill="#bbc392"/>
      <path id="Path_146" data-name="Path 146" d="M778.82,650.92a2.96,2.96,0,1,0-2.96-2.96A2.96,2.96,0,0,0,778.82,650.92Z" fill="#bbc392"/>
      <path id="Path_147" data-name="Path 147" d="M862.24,587.18a2.96,2.96,0,1,0-2.96-2.96A2.96,2.96,0,0,0,862.24,587.18Z" fill="#bbc392"/>
      <path id="Path_148" data-name="Path 148" d="M639.05,637a2.96,2.96,0,1,0-2.96-2.96A2.96,2.96,0,0,0,639.05,637Z" fill="#bbc392"/>
      <path id="Path_149" data-name="Path 149" d="M569.6,668.619a2.96,2.96,0,1,0-2.96-2.96A2.96,2.96,0,0,0,569.6,668.619Z" fill="#bbc392"/>
      <path id="Path_150" data-name="Path 150" d="M500.08,660.01a2.96,2.96,0,1,0-2.96-2.96A2.96,2.96,0,0,0,500.08,660.01Z" fill="#bbc392"/>
      <path id="Path_151" data-name="Path 151" d="M918.3,650.92a2.96,2.96,0,1,0-2.96-2.96A2.96,2.96,0,0,0,918.3,650.92Z" fill="#bbc392"/>
      <path id="Path_152" data-name="Path 152" d="M643.271,519.4H518.341a5.82,5.82,0,0,0,0,11.64h124.93a5.82,5.82,0,0,0,0-11.64Z" fill="#868a91"/>
      <path id="Path_153" data-name="Path 153" d="M1030.13,519.4h-78.3a5.82,5.82,0,0,0,0,11.64h78.3a5.82,5.82,0,0,0,0-11.64Z" fill="#868a91"/>
      <path id="Path_154" data-name="Path 154" d="M954.2,691.109h-6.51a3.05,3.05,0,0,0-3.05,3.05v6.51a3.049,3.049,0,0,0,3.05,3.05h6.51a3.05,3.05,0,0,0,3.05-3.05v-6.51A3.051,3.051,0,0,0,954.2,691.109Z" fill="#bbc392"/>
      <path id="Path_155" data-name="Path 155" d="M954.2,691.109h-6.51a3.05,3.05,0,0,0-3.05,3.05v6.51a3.049,3.049,0,0,0,3.05,3.05h6.51a3.05,3.05,0,0,0,3.05-3.05v-6.51A3.051,3.051,0,0,0,954.2,691.109Z" fill="#fff" opacity="0.5"/>
      <path id="Path_156" data-name="Path 156" d="M954.2,714.539h-6.51a3.05,3.05,0,0,0-3.05,3.05v6.51a3.049,3.049,0,0,0,3.05,3.05h6.51a3.05,3.05,0,0,0,3.05-3.05v-6.51A3.051,3.051,0,0,0,954.2,714.539Z" fill="#bbc392"/>
      <path id="Path_157" data-name="Path 157" d="M954.2,737.969h-6.51a3.049,3.049,0,0,0-3.05,3.05v6.51a3.05,3.05,0,0,0,3.05,3.05h6.51a3.051,3.051,0,0,0,3.05-3.05v-6.51A3.05,3.05,0,0,0,954.2,737.969Z" fill="#61656d"/>
      <path id="Path_158" data-name="Path 158" d="M1056.9,694.359H969.3a3.06,3.06,0,0,0-3.06,3.06v.01a3.06,3.06,0,0,0,3.06,3.06h87.6a3.06,3.06,0,0,0,3.06-3.06v-.01A3.06,3.06,0,0,0,1056.9,694.359Z" fill="#bbc392"/>
      <path id="Path_159" data-name="Path 159" d="M1056.9,717.789H969.3a3.06,3.06,0,0,0-3.06,3.06v.01a3.06,3.06,0,0,0,3.06,3.06h87.6a3.06,3.06,0,0,0,3.06-3.06v-.01A3.06,3.06,0,0,0,1056.9,717.789Z" fill="#bbc392"/>
      <path id="Path_160" data-name="Path 160" d="M1056.9,741.219H969.3a3.06,3.06,0,0,0-3.06,3.06v.01a3.06,3.06,0,0,0,3.06,3.06h87.6a3.06,3.06,0,0,0,3.06-3.06v-.01A3.06,3.06,0,0,0,1056.9,741.219Z" fill="#bbc392"/>
      <path id="Path_161" data-name="Path 161" d="M1056.9,694.359H969.3a3.06,3.06,0,0,0-3.06,3.06v.01a3.06,3.06,0,0,0,3.06,3.06h87.6a3.06,3.06,0,0,0,3.06-3.06v-.01A3.06,3.06,0,0,0,1056.9,694.359Z" fill="#fff" opacity="0.5"/>
      <path id="Path_162" data-name="Path 162" d="M1056.9,717.789H969.3a3.06,3.06,0,0,0-3.06,3.06v.01a3.06,3.06,0,0,0,3.06,3.06h87.6a3.06,3.06,0,0,0,3.06-3.06v-.01A3.06,3.06,0,0,0,1056.9,717.789Z" fill="#fff" opacity="0.5"/>
      <path id="Path_163" data-name="Path 163" d="M1056.9,741.219H969.3a3.06,3.06,0,0,0-3.06,3.06v.01a3.06,3.06,0,0,0,3.06,3.06h87.6a3.06,3.06,0,0,0,3.06-3.06v-.01A3.06,3.06,0,0,0,1056.9,741.219Z" fill="#fff" opacity="0.5"/>
      <path id="Path_164" data-name="Path 164" d="M1120.52,694.359h-24.13a3.06,3.06,0,0,0-3.06,3.06v.01a3.06,3.06,0,0,0,3.06,3.06h24.13a3.06,3.06,0,0,0,3.06-3.06v-.01A3.06,3.06,0,0,0,1120.52,694.359Z" fill="#bbc392"/>
      <path id="Path_165" data-name="Path 165" d="M1120.52,717.789h-24.13a3.06,3.06,0,0,0-3.06,3.06v.01a3.06,3.06,0,0,0,3.06,3.06h24.13a3.06,3.06,0,0,0,3.06-3.06v-.01A3.06,3.06,0,0,0,1120.52,717.789Z" fill="#bbc392"/>
      <path id="Path_166" data-name="Path 166" d="M1120.52,741.219h-24.13a3.06,3.06,0,0,0-3.06,3.06v.01a3.06,3.06,0,0,0,3.06,3.06h24.13a3.06,3.06,0,0,0,3.06-3.06v-.01A3.06,3.06,0,0,0,1120.52,741.219Z" fill="#bbc392"/>
      <path id="Path_167" data-name="Path 167" d="M625.19,796.27H522.23a3.03,3.03,0,0,0,0,6.06H625.19a3.03,3.03,0,0,0,0-6.06Z" fill="#bbc392"/>
      <path id="Path_168" data-name="Path 168" d="M561.63,814.92H523.49a4.29,4.29,0,0,0-4.29,4.29v7.08a4.29,4.29,0,0,0,4.29,4.29h38.14a4.29,4.29,0,0,0,4.29-4.29v-7.08A4.29,4.29,0,0,0,561.63,814.92Z" fill="#fff" opacity="0.15"/>
      <path id="Path_169" data-name="Path 169" d="M625.19,796.27H522.23a3.03,3.03,0,0,0,0,6.06H625.19a3.03,3.03,0,0,0,0-6.06Z" fill="#fff" opacity="0.5"/>
      <path id="Path_170" data-name="Path 170" d="M790.9,796.27H687.94a3.03,3.03,0,1,0,0,6.06H790.9a3.03,3.03,0,0,0,0-6.06Z" fill="#bbc392"/>
      <path id="Path_171" data-name="Path 171" d="M727.34,814.92H689.2a4.29,4.29,0,0,0-4.29,4.29v7.08a4.29,4.29,0,0,0,4.29,4.29h38.14a4.29,4.29,0,0,0,4.29-4.29v-7.08A4.29,4.29,0,0,0,727.34,814.92Z" fill="#fff" opacity="0.15"/>
      <path id="Path_172" data-name="Path 172" d="M790.9,796.27H687.94a3.03,3.03,0,1,0,0,6.06H790.9a3.03,3.03,0,0,0,0-6.06Z" fill="#fff" opacity="0.5"/>
      <path id="Path_173" data-name="Path 173" d="M953.381,796.27H850.421a3.03,3.03,0,1,0,0,6.06h102.96a3.03,3.03,0,1,0,0-6.06Z" fill="#bbc392"/>
      <path id="Path_174" data-name="Path 174" d="M889.821,814.92h-38.14a4.29,4.29,0,0,0-4.29,4.29v7.08a4.29,4.29,0,0,0,4.29,4.29h38.14a4.29,4.29,0,0,0,4.29-4.29v-7.08A4.29,4.29,0,0,0,889.821,814.92Z" fill="#fff" opacity="0.15"/>
      <path id="Path_175" data-name="Path 175" d="M953.381,796.27H850.421a3.03,3.03,0,1,0,0,6.06h102.96a3.03,3.03,0,1,0,0-6.06Z" fill="#fff" opacity="0.5"/>
      <path id="Path_176" data-name="Path 176" d="M1113.88,796.27H1010.92a3.03,3.03,0,0,0,0,6.06h102.96a3.03,3.03,0,1,0,0-6.06Z" fill="#bbc392"/>
      <path id="Path_177" data-name="Path 177" d="M1050.32,814.92h-38.14a4.29,4.29,0,0,0-4.29,4.29v7.08a4.29,4.29,0,0,0,4.29,4.29h38.14a4.29,4.29,0,0,0,4.29-4.29v-7.08A4.29,4.29,0,0,0,1050.32,814.92Z" fill="#bbc392"/>
      <path id="Path_178" data-name="Path 178" d="M561.63,814.92H523.49a4.29,4.29,0,0,0-4.29,4.29v7.08a4.29,4.29,0,0,0,4.29,4.29h38.14a4.29,4.29,0,0,0,4.29-4.29v-7.08A4.29,4.29,0,0,0,561.63,814.92Z" fill="#bbc392"/>
      <path id="Path_179" data-name="Path 179" d="M727.34,814.92H689.2a4.29,4.29,0,0,0-4.29,4.29v7.08a4.29,4.29,0,0,0,4.29,4.29h38.14a4.29,4.29,0,0,0,4.29-4.29v-7.08A4.29,4.29,0,0,0,727.34,814.92Z" fill="#bbc392"/>
      <path id="Path_180" data-name="Path 180" d="M889.821,814.92h-38.14a4.29,4.29,0,0,0-4.29,4.29v7.08a4.29,4.29,0,0,0,4.29,4.29h38.14a4.29,4.29,0,0,0,4.29-4.29v-7.08A4.29,4.29,0,0,0,889.821,814.92Z" fill="#bbc392"/>
      <path id="Path_181" data-name="Path 181" d="M1050.32,814.92h-38.14a4.29,4.29,0,0,0-4.29,4.29v7.08a4.29,4.29,0,0,0,4.29,4.29h38.14a4.29,4.29,0,0,0,4.29-4.29v-7.08A4.29,4.29,0,0,0,1050.32,814.92Z" fill="#bbc392"/>
      <path id="Path_182" data-name="Path 182" d="M561.63,814.92H523.49a4.29,4.29,0,0,0-4.29,4.29v7.08a4.29,4.29,0,0,0,4.29,4.29h38.14a4.29,4.29,0,0,0,4.29-4.29v-7.08A4.29,4.29,0,0,0,561.63,814.92Z" fill="#fff" opacity="0.15"/>
      <path id="Path_183" data-name="Path 183" d="M727.34,814.92H689.2a4.29,4.29,0,0,0-4.29,4.29v7.08a4.29,4.29,0,0,0,4.29,4.29h38.14a4.29,4.29,0,0,0,4.29-4.29v-7.08A4.29,4.29,0,0,0,727.34,814.92Z" fill="#fff" opacity="0.15"/>
      <path id="Path_184" data-name="Path 184" d="M889.821,814.92h-38.14a4.29,4.29,0,0,0-4.29,4.29v7.08a4.29,4.29,0,0,0,4.29,4.29h38.14a4.29,4.29,0,0,0,4.29-4.29v-7.08A4.29,4.29,0,0,0,889.821,814.92Z" fill="#fff" opacity="0.15"/>
      <path id="Path_185" data-name="Path 185" d="M561.63,814.92H523.49a4.29,4.29,0,0,0-4.29,4.29v7.08a4.29,4.29,0,0,0,4.29,4.29h38.14a4.29,4.29,0,0,0,4.29-4.29v-7.08A4.29,4.29,0,0,0,561.63,814.92Z" fill="#fff" opacity="0.15"/>
      <path id="Path_186" data-name="Path 186" d="M727.34,814.92H689.2a4.29,4.29,0,0,0-4.29,4.29v7.08a4.29,4.29,0,0,0,4.29,4.29h38.14a4.29,4.29,0,0,0,4.29-4.29v-7.08A4.29,4.29,0,0,0,727.34,814.92Z" fill="#fff" opacity="0.15"/>
      <path id="Path_187" data-name="Path 187" d="M889.821,814.92h-38.14a4.29,4.29,0,0,0-4.29,4.29v7.08a4.29,4.29,0,0,0,4.29,4.29h38.14a4.29,4.29,0,0,0,4.29-4.29v-7.08A4.29,4.29,0,0,0,889.821,814.92Z" fill="#fff" opacity="0.15"/>
      <path id="Path_188" data-name="Path 188" d="M1050.32,814.92h-38.14a4.29,4.29,0,0,0-4.29,4.29v7.08a4.29,4.29,0,0,0,4.29,4.29h38.14a4.29,4.29,0,0,0,4.29-4.29v-7.08A4.29,4.29,0,0,0,1050.32,814.92Z" fill="#fff" opacity="0.15"/>
      <path id="Path_189" data-name="Path 189" d="M1113.88,796.27H1010.92a3.03,3.03,0,0,0,0,6.06h102.96a3.03,3.03,0,1,0,0-6.06Z" fill="#fff" opacity="0.5"/>
      <path id="Path_206" data-name="Path 206" d="M558.21,795.059l-4.29,47.19-13.84,152.24a215.257,215.257,0,0,0-1.46,23v5.14l.18,11.24a9.137,9.137,0,0,1-9.17,8.81H528.1a9.2,9.2,0,0,1-3.792-.84,9.1,9.1,0,0,1-3.11-2.32,9.2,9.2,0,0,1-2.178-7.27l2.61-13.31a82.546,82.546,0,0,0,1.44-20.5l-5.55-157.22v-.45l-1.63-46.16Z" fill="#fc9d9d"/>
      <path id="Path_207" data-name="Path 207" d="M553.92,842.25,540.08,994.49a215.765,215.765,0,0,0-1.46,23c-1.91,1.9-4.86,3.57-4.55-4.83L543,859a9,9,0,0,0-4.29-8.22,107.522,107.522,0,0,0-21.19-9.58c-1-.35-1.65-.52-1.65-.52l1.63.07Z" opacity="0.15"/>
      <path id="Path_208" data-name="Path 208" d="M533.94,1016.26c3.13,0,5.76-4,6.06-1,.1,1.08.19,2.35.19,3.52l.1,24.54a24.71,24.71,0,0,1-3.62,12.22l-.48.88a7.707,7.707,0,0,1-6.46,3.52h-7.52a7.493,7.493,0,0,1-7.24-5.38h0a25.236,25.236,0,0,1-.39-11.14l6.26-26.3c.19-1,.49-1.95.78-3,.78-2.44,3.13,2,5.86,2h6.46v.14Z" fill="#37383a"/>
      <path id="Path_209" data-name="Path 209" d="M539.78,1031.22l-.58-.68a3.893,3.893,0,0,0-1.858-1.19,3.945,3.945,0,0,0-2.207,0,3.938,3.938,0,0,0-2.785,3.19l-4.3,27.67h-4.79l1-27.18a4,4,0,0,0-4.49-4.02,3.947,3.947,0,0,0-2.06.89l4.1-16.72a2.663,2.663,0,0,1,.483-.97,2.589,2.589,0,0,1,1.88-.96,2.59,2.59,0,0,1,1.067.17l2.24.88a9.735,9.735,0,0,0,6.85.1l2.25-.78a2.619,2.619,0,0,1,1.21-.12,2.583,2.583,0,0,1,1.128.46,2.58,2.58,0,0,1,1.082,2.1v17.11Z" fill="#21252b"/>
      <path id="Path_210" data-name="Path 210" d="M612.18,450.348a3.359,3.359,0,0,1-3.13,3.71v.2l-.9,4.45-.17.83c-.07.31-.14.62-.23.91-2.38,9.09-7.86,13.85-16,13.85h-4.1l.43,5.9c.2,2.71,9.95,2.66,12.58,3.34l3.93,5.38-33.07,16.76-39.81-17.85,16.2-4.92c6.22-2.25,9.15-6.91,11.4-10.77l2.23-6.62-6.45-45,15.84-6.45h28.25l7.43,17.3,1.57,13.3a4.19,4.19,0,0,0,2.05,2.83,3.4,3.4,0,0,1,1.95,2.85Z" fill="#fc9d9d"/>
      <path id="Path_211" data-name="Path 211" d="M592.85,425.428c-2.41-19.14-19.07-24.45-37.74-18.93-19,5.65-27.39,31.31-19.25,49.53s33,22,45.55,16C592.19,466.778,595.27,444.568,592.85,425.428Z" fill="#231f20"/>
      <path id="Path_212" data-name="Path 212" d="M547.369,401.11c-15.92,11.66-22.89,38.92-15.28,59.34-1.27-1.65,57.43,14.67,59.43,13.85a68.958,68.958,0,0,0,6-13.85c-1.32,3.86-2.22,10.19-1.1,12.31.85,1.6,4.44-1.18,4.44-1.18,3-10.45,2.09-35.23,1.82-44.17C596.839,423.49,553.939,396.58,547.369,401.11Z" opacity="0.15"/>
      <path id="Path_213" data-name="Path 213" d="M546.53,401.109a39,39,0,0,1,22.47-6.86c11-.3,40.14,6.91,41.57,33.91-2.37,1.86-6.29,1.59-8,3.17,1,20.14-3.76,45.46-7.72,55.3-1.39-1.28-2.86-2.57-4.42-3.81a69.947,69.947,0,0,0,5-20.63,58.236,58.236,0,0,1-8,18.32c-18.69-14.22-45.13-23-55.6-18.09C524.25,442,530.56,412.769,546.53,401.109Z" fill="#21252b"/>
      <g id="Group_14" data-name="Group 14" opacity="0.15">
        <path id="Path_214" data-name="Path 214" d="M605.11,457.689a.726.726,0,0,0-.18-.17.88.88,0,0,0-.65-.12.766.766,0,0,0-.54.36.848.848,0,0,0,.15,1.13,5.285,5.285,0,0,0,3.82,1.56h0c.09-.29.16-.6.23-.91l.17-.83a3.644,3.644,0,0,1-3-1.02Z" opacity="0.15"/>
      </g>
      <path id="Path_215" data-name="Path 215" d="M608,451.288c-2.35,0-3.62-5-3.62-9.77s1.27-9.78,3.62-9.78,3.62,5,3.62,9.78S610.29,451.288,608,451.288Zm0-18.37c-1.07,0-2.54,3.32-2.54,8.7s1.47,8.7,2.54,8.7,2.54-3.33,2.54-8.7S609,432.918,608,432.918Z" fill="#21252b"/>
      <path id="Path_216" data-name="Path 216" d="M685.13,1043.23l-5,6.84-19.6-9.81-17.44-31.47A49.645,49.645,0,0,0,640.71,993l-37.22-141.86-2.21-8.42-12.62-48.1,48.61,1.28,5.38,45.64,17.93,152.23a30.029,30.029,0,0,0,3.15,9.181Z" fill="#fa9b9b"/>
      <path id="Path_217" data-name="Path 217" d="M685.13,1043.23l-5,6.84-24.53-46.43a31.393,31.393,0,0,1-3.46-11.431l-12.53-122.46A13.938,13.938,0,0,0,629.36,858l-25.87-6.86-2.21-8.42,41.37-1.18,17.93,152.23a30.029,30.029,0,0,0,3.15,9.181Z" opacity="0.15"/>
      <path id="Path_218" data-name="Path 218" d="M705,1055.55a2.361,2.361,0,0,1,.152,1.12,2.318,2.318,0,0,1-.384,1.06,2.353,2.353,0,0,1-1.928,1.06H678.12a20.429,20.429,0,0,1-15.83-7.46l-13.58-16.64a1.78,1.78,0,0,0-.9-.61,1.778,1.778,0,0,0-1.974.66,1.812,1.812,0,0,0-.353,1.03l-.72,23h-2.52L639,1036.4a47.917,47.917,0,0,1,4-27.61l22.3,27a21,21,0,0,0,19.78,7.46h0l13.85,6.3A12.626,12.626,0,0,1,705,1055.55Z" fill="#21252b"/>
      <path id="Path_219" data-name="Path 219" d="M545.72,483.129l-27.64,5.13a23,23,0,0,0-16.31,12.56h0a22.748,22.748,0,0,0-1.81,5.36l-17.24,83.93a17.49,17.49,0,0,0,17.14,21h52.48l.39-22.89-38.39-.66,15.11-78Z" fill="#3f4249"/>
      <path id="Path_220" data-name="Path 220" d="M794.28,482l-14.25,15,1-.62a3.063,3.063,0,0,1,4,.62,2.87,2.87,0,0,1,.63,1.78,3,3,0,0,1-1.05,2.31l-.42.31a2.75,2.75,0,0,1,4,.53,3.126,3.126,0,0,1,.52,1.57,2.855,2.855,0,0,1-.84,2l-1.25,1.15a2.654,2.654,0,0,1,2.1-.7,2.658,2.658,0,0,1,1.9,1.123,2.526,2.526,0,0,1,.52,1.46,2.56,2.56,0,0,1-.63,1.68l-4.5,5.45-1.57,2a34.559,34.559,0,0,1-16.24,11.2l-4.81,1.57-28.91,22-10.89-17.81,28.8-18,19.79-22,19.38-15.71a2.14,2.14,0,0,1,2.93.21,2.079,2.079,0,0,1,.63,1.47,2.768,2.768,0,0,1-.84,1.41Z" fill="#fc9d9d"/>
      <path id="Path_221" data-name="Path 221" d="M765,525.318l-4.19,1.36a3.371,3.371,0,0,0-1.25.63l-28.7,20.84,3.35,4.4,28.91-22,4.81-1.57a34.554,34.554,0,0,0,16.24-11.2l1.57-2,4.5-5.45a2.555,2.555,0,0,0,.63-1.68l-6.6,6.71C780,520.708,771.34,523.218,765,525.318Z" opacity="0.15"/>
      <path id="Path_222" data-name="Path 222" d="M527.2,642.8l-.68,2.81a534.557,534.557,0,0,0-16.18,137.13l-1.52,57.85,139.26,9.19L622.37,643Z" fill="#bbc392"/>
      <path id="Path_223" data-name="Path 223" d="M523.91,656.9l2.71-12.94H622.8l1.36,13.41Z" fill="#231f20"/>
      <path id="Path_224" data-name="Path 224" d="M584.75,657.141c16.32,0,26,9.34,28.11,21.63l17.59,169.85,17.63,1.16-23.92-192.41Z" opacity="0.2"/>
      <path id="Path_225" data-name="Path 225" d="M683.31,580.7l-51.53-40.32a56.94,56.94,0,0,1,.57,7,21.794,21.794,0,0,1-.85,6.07,23,23,0,0,1-5.6,9.49l-2.9,3.15a3,3,0,0,0-.85,2.18l.28,75.81L526.62,644l-7.36-105-1.93-36.52c0-6.65,8.58-16.13,18.64-17.55l14.59-2.75c7.79,7.49,34.07,8.82,50.1,1.42l13.38,3a39.066,39.066,0,0,1,18.22,10.34L694,550.81l38.71-22.2,11.57,15.75-45,36.34a13.092,13.092,0,0,1-15.97,0Z" fill="#3f4249"/>
      <path id="Path_226" data-name="Path 226" d="M623,566.09a3,3,0,0,0-.85,2.18l.28,75.81h-6.3l-.82-69.47a8.4,8.4,0,0,1,7-8.38Z" opacity="0.3"/>
      <path id="Path_227" data-name="Path 227" d="M575.32,625.609l-1.95.3-.86,1.77-.88-1.76-1.94-.27,1.4-1.39-.35-1.93,1.75.9,1.73-.92-.32,1.94Z" fill="#fff"/>
      <path id="Path_228" data-name="Path 228" d="M604.99,605.71l-1.94.29-.86,1.77-.88-1.76-1.95-.27,1.4-1.38-.34-1.94,1.74.91,1.74-.93-.32,1.94Z" fill="#fff"/>
      <path id="Path_229" data-name="Path 229" d="M538.03,606.06l-1.94.29-.86,1.77-.88-1.76-1.95-.27,1.4-1.38-.34-1.94,1.74.91,1.74-.93-.32,1.94Z" fill="#fff"/>
      <path id="Path_230" data-name="Path 230" d="M572.33,592.929l-1.95.3-.86,1.76-.88-1.75-1.95-.28,1.4-1.38-.34-1.93,1.75.9,1.73-.92-.32,1.94Z" fill="#fff"/>
      <path id="Path_231" data-name="Path 231" d="M536.75,639.919l-1.94.29-.86,1.77-.88-1.76-1.95-.27,1.4-1.38-.34-1.94,1.74.91,1.74-.93-.32,1.94Z" fill="#fff"/>
      <path id="Path_232" data-name="Path 232" d="M538.971,561.279l-1.94.29-.86,1.77-.88-1.76-1.95-.27,1.4-1.38L534.4,558l1.74.9,1.74-.92-.33,1.93Z" fill="#fff"/>
      <path id="Path_233" data-name="Path 233" d="M559.92,550.81l-1.95.29-.86,1.77-.88-1.76-1.94-.27,1.4-1.38-.35-1.94,1.75.91,1.73-.93-.32,1.94Z" fill="#fff"/>
      <path id="Path_234" data-name="Path 234" d="M591.341,571.749l-1.95.3-.86,1.77-.88-1.76-1.94-.27,1.4-1.39-.35-1.93,1.75.9,1.73-.92-.32,1.94Z" fill="#fff"/>
      <path id="Path_235" data-name="Path 235" d="M612.29,540.329l-1.95.3-.86,1.76-.88-1.75-1.95-.27,1.4-1.38-.34-1.94,1.75.9,1.73-.92-.32,1.94Z" fill="#fff"/>
      <path id="Path_236" data-name="Path 236" d="M580.87,519.39l-1.95.29-.86,1.77-.88-1.76-1.95-.27,1.4-1.38-.34-1.94,1.741.91,1.74-.93-.32,1.94Z" fill="#fff"/>
      <path id="Path_237" data-name="Path 237" d="M538.971,519.39l-1.94.29-.86,1.77-.88-1.76-1.95-.27,1.4-1.38-.34-1.94,1.74.91,1.74-.93-.33,1.94Z" fill="#fff"/>
      <path id="Path_238" data-name="Path 238" d="M538.971,494.249l-1.94.29-.86,1.77-.88-1.76-1.95-.27,1.4-1.38-.34-1.94,1.74.91,1.74-.93-.33,1.94Z" fill="#fff"/>
      <path id="Path_239" data-name="Path 239" d="M507.551,525.669l-1.94.29-.86,1.77-.88-1.76-1.95-.27,1.4-1.38-.34-1.93,1.74.9,1.74-.92-.33,1.94Z" fill="#fff"/>
      <path id="Path_240" data-name="Path 240" d="M518.021,557.089l-1.94.29-.86,1.77-.88-1.76-1.95-.27,1.4-1.38-.34-1.93,1.74.9,1.74-.92-.32,1.94Z" fill="#fff"/>
      <path id="Path_241" data-name="Path 241" d="M497.08,578.039l-1.95.29-.86,1.77-.88-1.76-1.95-.27,1.41-1.38-.35-1.94,1.75.91,1.73-.93-.32,1.94Z" fill="#fff"/>
      <path id="Path_242" data-name="Path 242" d="M507.551,598.98l-1.94.3-.86,1.77-.88-1.76-1.95-.27,1.4-1.38-.34-1.94,1.74.91,1.74-.93-.33,1.94Z" fill="#fff"/>
      <path id="Path_243" data-name="Path 243" d="M612.29,500.529l-1.95.3-.86,1.771-.88-1.76-1.95-.27,1.4-1.38-.34-1.94,1.75.9,1.73-.919-.32,1.94Z" fill="#fff"/>
      <path id="Path_244" data-name="Path 244" d="M641.61,521.48l-1.94.29-.86,1.77-.88-1.76-1.95-.27,1.4-1.38-.349-1.93,1.75.9,1.74-.92-.32,1.94Z" fill="#fff"/>
      <path id="Path_245" data-name="Path 245" d="M614.38,634.589l-1.94.3-.86,1.77-.88-1.76-1.95-.27,1.4-1.38-.35-1.94,1.75.91,1.74-.93-.33,1.94Z" fill="#fff"/>
      <path id="Path_246" data-name="Path 246" d="M666.75,533l-1.95.3-.86,1.76-.88-1.75-1.94-.28,1.39-1.38-.34-1.93,1.75.9,1.73-.92-.32,1.94Z" fill="#fff"/>
      <path id="Path_247" data-name="Path 247" d="M666.75,559.179l-1.95.3-.86,1.77-.88-1.76-1.94-.27,1.39-1.38-.34-1.94,1.75.91,1.73-.93-.32,1.94Z" fill="#fff"/>
      <path id="Path_248" data-name="Path 248" d="M687.7,569.66l-1.95.29-.86,1.77-.88-1.76-1.95-.27,1.4-1.38-.34-1.94,1.75.91,1.73-.93-.32,1.94Z" fill="#fff"/>
      <path id="Path_249" data-name="Path 249" d="M710.741,569.66l-1.95.29-.86,1.77-.88-1.76-1.95-.27,1.4-1.38-.34-1.94,1.75.91,1.73-.93-.32,1.94Z" fill="#fff"/>
      <path id="Path_250" data-name="Path 250" d="M731.681,544.519l-1.94.3-.86,1.77-.88-1.76-1.95-.28,1.4-1.38-.34-1.93,1.74.9,1.74-.92-.32,1.94Z" fill="#fff"/>
      <path id="Path_251" data-name="Path 251" d="M522.68,587.65l-8.34-.12L520.45,556l-.15.09a8.718,8.718,0,0,0-4,5.68l-5.76,28a1,1,0,0,0,.562,1.12,1.015,1.015,0,0,0,.438.09h11.37Z" opacity="0.3"/>
      <path id="Path_252" data-name="Path 252" d="M524.581,586.779l-4.12-30.83,6.16,88.01h3.33Z" opacity="0.3"/>
    </g>
  </g>
</svg>
