<svg xmlns="http://www.w3.org/2000/svg" width="876.272" height="661.473" viewBox="0 0 876.272 661.473">
  <g id="Group_36" data-name="Group 36" transform="translate(-207 -1778)">
    <path id="Path_675" data-name="Path 675" d="M685.834,138.654c7.516,16-8.411,20.526-26.655,29.1s-31.9,17.942-39.414,1.947-13.615-47.743,12.2-59.871C658.66,97.284,678.318,122.659,685.834,138.654Z" transform="translate(26.136 1671.54)" fill="#2f2e41"/>
    <circle id="Ellipse_15" data-name="Ellipse 15" cx="24.561" cy="24.561" r="24.561" transform="translate(650.185 1792.528)" fill="#ffb8b8"/>
    <path id="Path_676" data-name="Path 676" d="M770.29,254.473c-.85-1.11-1.7-2.2-2.56-3.26q-1.665-2.07-3.35-4.01c-12.73-14.69-26.27-23.94-41.18-24.93h-.02l-.22-.02-29.71,28.96-10.1,9.84.22.54,5.45,13.57h95.49a234.83,234.83,0,0,0-14.02-20.69Z" transform="translate(26.136 1671.54)" fill="#2f2e41"/>
    <path id="Path_677" data-name="Path 677" d="M621.9,155.438h0l8.792-4.131-1.225-12.683,5.879,10.5,4.2-1.975-.714-7.4,3.43,6.123L673.49,131.2h0A26,26,0,0,0,638.9,118.722l-4.525,2.126A26,26,0,0,0,621.9,155.438Z" transform="translate(26.136 1671.54)" fill="#2f2e41"/>
    <path id="Path_678" data-name="Path 678" d="M825.39,601.261H312.552a16.519,16.519,0,0,1-16.5-16.5V276.607a12.1,12.1,0,0,1,12.088-12.088H829.593a12.311,12.311,0,0,1,12.3,12.3V584.761a16.519,16.519,0,0,1-16.5,16.5Z" transform="translate(26.136 1671.54)" fill="#f2f2f2"/>
    <path id="Path_679" data-name="Path 679" d="M328.552,584.761H809.39a16,16,0,0,0,16-16V307.213a16,16,0,0,0-16-16H328.552a16,16,0,0,0-16,16V568.761A16,16,0,0,0,328.552,584.761Z" transform="translate(26.136 1671.54)" fill="#fff"/>
    <path id="Path_680" data-name="Path 680" d="M841.66,275.663H295.82v-8.4a16.574,16.574,0,0,1,16.56-16.55H825.1a16.574,16.574,0,0,1,16.56,16.55Z" transform="translate(26.136 1671.54)" fill="#bbc392"/>
    <circle id="Ellipse_16" data-name="Ellipse 16" cx="4.283" cy="4.283" r="4.283" transform="translate(347.768 1930.469)" fill="#fff"/>
    <circle id="Ellipse_17" data-name="Ellipse 17" cx="4.283" cy="4.283" r="4.283" transform="translate(364.027 1930.469)" fill="#fff"/>
    <circle id="Ellipse_18" data-name="Ellipse 18" cx="4.283" cy="4.283" r="4.283" transform="translate(380.286 1930.469)" fill="#fff"/>
    <g id="Group_32" data-name="Group 32" transform="translate(67 43)">
      <path id="Path_681" data-name="Path 681" d="M583.974,528.04h-43a9.511,9.511,0,0,1-9.5-9.5v-43a9.511,9.511,0,0,1,9.5-9.5h43a9.511,9.511,0,0,1,9.5,9.5v43A9.511,9.511,0,0,1,583.974,528.04Zm-43-60a7.508,7.508,0,0,0-7.5,7.5v43a7.508,7.508,0,0,0,7.5,7.5h43a7.508,7.508,0,0,0,7.5-7.5v-43a7.508,7.508,0,0,0-7.5-7.5Z" transform="translate(26.136 1671.54)" fill="#ccc"/>
      <path id="Path_682" data-name="Path 682" d="M575.474,516.04h-26a3,3,0,0,1-3-3v-32a3,3,0,0,1,3-3h18.839a3.007,3.007,0,0,1,1.879.662l7.16,5.754a2.984,2.984,0,0,1,1.121,2.338V513.04a3,3,0,0,1-3,3Zm-26-36a1,1,0,0,0-1,1v32a1,1,0,0,0,1,1h26a1,1,0,0,0,1-1V486.793a1,1,0,0,0-.373-.779l-7.161-5.754a1,1,0,0,0-.626-.22Z" transform="translate(26.136 1671.54)" fill="#ccc"/>
      <path id="Path_683" data-name="Path 683" d="M570.474,492.04h-16a1,1,0,0,1,0-2h16a1,1,0,0,1,0,2Z" transform="translate(26.136 1671.54)" fill="#ccc"/>
      <path id="Path_684" data-name="Path 684" d="M570.474,498.04h-16a1,1,0,0,1,0-2h16a1,1,0,0,1,0,2Z" transform="translate(26.136 1671.54)" fill="#ccc"/>
      <path id="Path_685" data-name="Path 685" d="M570.474,504.04h-16a1,1,0,0,1,0-2h16a1,1,0,0,1,0,2Z" transform="translate(26.136 1671.54)" fill="#ccc"/>
    </g>
    <g id="Group_31" data-name="Group 31" transform="translate(65.457 43)">
      <path id="Path_686" data-name="Path 686" d="M685.974,528.04h-43a9.511,9.511,0,0,1-9.5-9.5v-43a9.511,9.511,0,0,1,9.5-9.5h43a9.511,9.511,0,0,1,9.5,9.5v43A9.511,9.511,0,0,1,685.974,528.04Zm-43-60a7.508,7.508,0,0,0-7.5,7.5v43a7.508,7.508,0,0,0,7.5,7.5h43a7.508,7.508,0,0,0,7.5-7.5v-43a7.508,7.508,0,0,0-7.5-7.5Z" transform="translate(26.136 1671.54)" fill="#ccc"/>
      <path id="Path_687" data-name="Path 687" d="M678.474,508.04h-28a3,3,0,0,1-3-3v-16a3,3,0,0,1,3-3h28a3,3,0,0,1,3,3v16a3,3,0,0,1-3,3Zm-28-20a1,1,0,0,0-1,1v16a1,1,0,0,0,1,1h28a1,1,0,0,0,1-1v-16a1,1,0,0,0-1-1Z" transform="translate(26.136 1671.54)" fill="#ccc"/>
      <path id="Path_688" data-name="Path 688" d="M664.474,499.678a3,3,0,0,1-1.59-.453l-14.94-9.337a1,1,0,1,1,1.061-1.7l14.94,9.337a1.006,1.006,0,0,0,1.06,0l14.939-9.337a1,1,0,1,1,1.06,1.7l-14.939,9.337a3,3,0,0,1-1.591.453Z" transform="translate(26.136 1671.54)" fill="#ccc"/>
    </g>
    <g id="Group_33" data-name="Group 33" transform="translate(68.543 43)">
      <path id="Path_689" data-name="Path 689" d="M481.974,528.04h-43a9.511,9.511,0,0,1-9.5-9.5v-43a9.511,9.511,0,0,1,9.5-9.5h43a9.511,9.511,0,0,1,9.5,9.5v43A9.511,9.511,0,0,1,481.974,528.04Zm-43-60a7.508,7.508,0,0,0-7.5,7.5v43a7.508,7.508,0,0,0,7.5,7.5h43a7.508,7.508,0,0,0,7.5-7.5v-43a7.508,7.508,0,0,0-7.5-7.5Z" transform="translate(26.136 1671.54)" fill="#ccc"/>
      <path id="Path_690" data-name="Path 690" d="M474.474,508.04h-28a3,3,0,0,1-3-3v-16a3,3,0,0,1,3-3h28a3,3,0,0,1,3,3v16a3,3,0,0,1-3,3Zm-28-20a1,1,0,0,0-1,1v16a1,1,0,0,0,1,1h28a1,1,0,0,0,1-1v-16a1,1,0,0,0-1-1Z" transform="translate(26.136 1671.54)" fill="#ccc"/>
      <path id="Path_691" data-name="Path 691" d="M470.036,508.04H449.912a2,2,0,0,1-1.732-3l6.061-10.5a2,2,0,0,1,3.464,0l3.915,6.781,2.268-3.929a2,2,0,0,1,3.464,0l4.415,7.647a2,2,0,0,1-1.732,3Zm0-2h0l-4.415-7.647-3.134,5.429a1,1,0,0,1-.866.5h0a1,1,0,0,1-.866-.5l-4.781-8.281-6.062,10.5Z" transform="translate(26.136 1671.54)" fill="#ccc"/>
      <circle id="Ellipse_19" data-name="Ellipse 19" cx="2" cy="2" r="2" transform="translate(495.61 2161.579)" fill="#ccc"/>
    </g>
    <path id="Path_692" data-name="Path 692" d="M768.825,648.15h-12.26l-5.832-47.288h18.094Z" transform="translate(207 1778)" fill="#ffb8b8"/>
    <path id="Path_693" data-name="Path 693" d="M952.816,766.494H913.285v-.5a15.386,15.386,0,0,1,15.387-15.386h24.145Z" transform="translate(26.136 1671.54)" fill="#2f2e41"/>
    <path id="Path_694" data-name="Path 694" d="M818.825,648.15h-12.26l-5.832-47.288h18.094Z" transform="translate(207 1778)" fill="#ffb8b8"/>
    <path id="Path_695" data-name="Path 695" d="M1002.816,766.494H963.285v-.5a15.386,15.386,0,0,1,15.387-15.386h24.145Z" transform="translate(26.136 1671.54)" fill="#2f2e41"/>
    <path id="Path_696" data-name="Path 696" d="M996.014,734.111l-11.354-3.454a4.493,4.493,0,0,1-3.166-3.833L970.908,626.5a.48.48,0,0,0-.479-.447.469.469,0,0,0-.51.409l-17.731,97.2a4.5,4.5,0,0,1-5.335,3.6l-14.511-2.989a4.516,4.516,0,0,1-3.582-4.712l10.785-159.312,73.138-7.892L1001.815,730.08a4.5,4.5,0,0,1-5.8,4.031Z" transform="translate(26.136 1671.54)" fill="#2f2e41"/>
    <circle id="Ellipse_20" data-name="Ellipse 20" cx="24.561" cy="24.561" r="24.561" transform="translate(997.519 2043.926)" fill="#ffb8b8"/>
    <path id="Path_697" data-name="Path 697" d="M939.433,561.18l15.858-99.851a37.857,37.857,0,0,1,48.005-30.4h0a37.743,37.743,0,0,1,26.6,43.262l-16.591,89.172Z" transform="translate(26.136 1671.54)" fill="#bbc392"/>
    <path id="Path_698" data-name="Path 698" d="M1002.725,579.046a10.056,10.056,0,0,0,1.747-15.32l16.4-31.751-18.465,1.97-12.739,29.849a10.11,10.11,0,0,0,13.061,15.251Z" transform="translate(26.136 1671.54)" fill="#ffb8b8"/>
    <path id="Path_699" data-name="Path 699" d="M1006.236,558.126a4.506,4.506,0,0,1-2.427-1.151l-6.273-5.8a4.515,4.515,0,0,1-1.092-5.054l12.537-29.718-1.779-58.72a14.5,14.5,0,1,1,28.727,3.919l3.041,36.912a46.374,46.374,0,0,1-8.938,31.4l-19.552,26.432a4.5,4.5,0,0,1-3.2,1.8A4.454,4.454,0,0,1,1006.236,558.126Z" transform="translate(26.136 1671.54)" fill="#bbc392"/>
    <path id="Path_700" data-name="Path 700" d="M854.505,383.566a10.056,10.056,0,0,0,13.426,7.582l22.846,27.478,5.385-17.772-22.52-23.369a10.11,10.11,0,0,0-19.137,6.081Z" transform="translate(26.136 1671.54)" fill="#ffb8b8"/>
    <path id="Path_701" data-name="Path 701" d="M872.4,394.956a4.506,4.506,0,0,1,2.006-1.786l7.784-3.517a4.515,4.515,0,0,1,5.08.965l22.478,23.132,54.766,21.257a14.5,14.5,0,0,1-14.809,24.926l-35.177-11.592A46.374,46.374,0,0,1,889.1,427.869l-16.717-28.311a4.505,4.505,0,0,1-.415-3.646,4.455,4.455,0,0,1,.432-.958Z" transform="translate(26.136 1671.54)" fill="#bbc392"/>
    <path id="Path_702" data-name="Path 702" d="M835,375.652l-1,32L815.58,439.663l15.382-35.673Z" transform="translate(207 1778)" opacity="0.1"/>
    <path id="Path_703" data-name="Path 703" d="M993.13,401.563a6.423,6.423,0,0,1-7.031-4.7,9.764,9.764,0,0,0-6.951-7.274c-4.506-1.029-10.012,1.091-13.314-2.322a6.637,6.637,0,0,1-1.575-5.842c.608-3.317,2.981-5.823,5.563-7.828a34.062,34.062,0,0,1,18.866-7.051,67.675,67.675,0,0,1,10.621.528,47.008,47.008,0,0,1,10.864,1.985,25.576,25.576,0,0,1,16,18.68,29.528,29.528,0,0,1-6.057,24.13,31.7,31.7,0,0,1-12.161,9.259,4.744,4.744,0,0,1-3.606.183c-2.957-1.176-2.474-4.839-1.126-7.282,1.443-2.615,3.663-5.146,2.5-8.329a6.3,6.3,0,0,0-3.127-3.366c-2.94-1.5-6.228-1.145-9.389-.78Z" transform="translate(26.136 1671.54)" fill="#2f2e41"/>
    <path id="Path_708" data-name="Path 708" d="M1056.136,767.933h-192a1,1,0,0,1,0-2h192a1,1,0,0,1,0,2Z" transform="translate(26.136 1671.54)" fill="#ccc"/>
    <path id="Path_709" data-name="Path 709" d="M784.92,238.373a11.221,11.221,0,0,0-7.25-5.1,10.3,10.3,0,0,0-1.66-.21l-76.19-68.12a9.015,9.015,0,0,0-5.63-2.69,7.67,7.67,0,0,0-1.27-.04,9.055,9.055,0,0,0-5.96,15.48l29.17,25.43,47.9,41.75a11.913,11.913,0,0,0,.35,2.33,11.266,11.266,0,0,0,9.67,8.37,11.092,11.092,0,0,0,6.05-1,11.407,11.407,0,0,0,3.88-2.97c.11-.13.21-.25.31-.39a11.293,11.293,0,0,0,.63-12.84Z" transform="translate(26.136 1671.54)" fill="#ffb8b8"/>
    <path id="Path_710" data-name="Path 710" d="M654.6,304.023l-.71-28.86-.6-23.95-.41-16.76-.81-32.67a9.046,9.046,0,0,0-15.71-5.25,6.927,6.927,0,0,0-.75.96,8.936,8.936,0,0,0-1.56,6.05l1.78,47.67.89,23.95,1.14,30.55a12.046,12.046,0,0,0-.89,1.41,11.308,11.308,0,1,0,17.63-3.1Z" transform="translate(26.136 1671.54)" fill="#ffb8b8"/>
    <path id="Path_711" data-name="Path 711" d="M723.2,222.273l-7.07-19.15L704.69,172.1a16.006,16.006,0,0,0-9.95-9.68c-.18-.06-.37-.12-.55-.17a15.984,15.984,0,0,0-13.24,1.82l-38.53,24.44a16.093,16.093,0,0,0-5.27,21.75,276.32,276.32,0,0,0,15.73,24.19c4.49,6.11,12.85,6.76,14.3,16.76h28.41l28.76-25.82Z" transform="translate(26.136 1671.54)" fill="#ccc"/>
    <circle id="Ellipse_22" data-name="Ellipse 22" cx="23.172" cy="23.172" r="23.172" transform="translate(284.993 2081.511)" fill="#a0616a"/>
    <path id="Path_712" data-name="Path 712" d="M338.915,417.193q.342.273.664.578a10.38,10.38,0,0,1-.417,15.484,9.734,9.734,0,0,1-.814.613l1.568,52.945a8.061,8.061,0,0,1-5.545,7.867l-.1.021-42.989,4.578a8.9,8.9,0,1,1-1.722-17.713l30.644-2.7,5.3-45.851a9.882,9.882,0,0,1-.972-.99,10.38,10.38,0,0,1,14.378-14.833Z" transform="translate(26.136 1671.54)" fill="#a0616a"/>
    <path id="Path_713" data-name="Path 713" d="M139.328,649.174H150.9l5.5-44.613H139.326Z" transform="translate(207 1778)" fill="#a0616a"/>
    <path id="Path_714" data-name="Path 714" d="M317.242,751.858h22.779a14.516,14.516,0,0,1,14.516,14.516v.471H317.243Z" transform="translate(26.136 1671.54)" fill="#2f2e41"/>
    <path id="Path_715" data-name="Path 715" d="M24.366,633.182,34.3,639.1l27.553-35.517-14.668-8.733Z" transform="translate(207 1778)" fill="#a0616a"/>
    <path id="Path_716" data-name="Path 716" d="M204.627,734.889,224.2,746.542h0a14.516,14.516,0,0,1,5.046,19.9l-.241.405L196.96,747.767Z" transform="translate(26.136 1671.54)" fill="#2f2e41"/>
    <path id="Path_717" data-name="Path 717" d="M334.488,739.877H321.536a4.238,4.238,0,0,1-4.222-3.8L304.258,613.343a1.415,1.415,0,0,0-2.7-.433l-23.555,52.159-41.7,68a4.266,4.266,0,0,1-5.329,1.666l-16.66-7.33a4.247,4.247,0,0,1-1.935-6.064l38.337-64.192,11.758-54.085c-3.7-23.455,12.155-58.326,12.316-58.676l.079-.17,43.668-17.068.219.268c17.221,56.514,27.715,117.332,19.967,208.568A4.274,4.274,0,0,1,334.488,739.877Z" transform="translate(26.136 1671.54)" fill="#2f2e41"/>
    <path id="Path_718" data-name="Path 718" d="M273.107,549.934l-.2-.427c-.1-.2-9.807-20.684-17.292-42.571a32.285,32.285,0,0,1,2.239-25.873,32.637,32.637,0,0,1,20.813-16h0a32.677,32.677,0,0,1,37.928,19.57c5.937,14.847,4.045,30.694,2.264,43.157l-.035.25-.227.109Z" transform="translate(26.136 1671.54)" fill="#3f3d56"/>
    <path id="Path_719" data-name="Path 719" d="M310.124,420.054H273.33V404.015c8.076-3.208,15.978-5.937,20.756,0a16.038,16.038,0,0,1,16.038,16.038Z" transform="translate(26.136 1671.54)" fill="#2f2e41"/>
    <path id="Path_720" data-name="Path 720" d="M271.293,401.185c-22,0-28.153,27.571-28.153,43.126,0,8.674,3.923,11.777,10.088,12.827l2.177-11.611,5.1,12.111c1.732.009,3.551-.025,5.437-.06l1.729-3.56,3.855,3.5c15.441.023,27.921,2.274,27.921-13.2C299.445,428.756,294.046,401.185,271.293,401.185Z" transform="translate(26.136 1671.54)" fill="#2f2e41"/>
    <path id="Path_721" data-name="Path 721" d="M373.864,767.933h-192a1,1,0,0,1,0-2h192a1,1,0,0,1,0,2Z" transform="translate(26.136 1671.54)" fill="#ccc"/>
    <path id="Path_722" data-name="Path 722" d="M377.474,438.933h-43a9.511,9.511,0,0,1-9.5-9.5v-43a9.511,9.511,0,0,1,9.5-9.5h43a9.511,9.511,0,0,1,9.5,9.5v43a9.511,9.511,0,0,1-9.5,9.5Z" transform="translate(26.136 1671.54)" fill="#fff"/>
    <path id="Path_723" data-name="Path 723" d="M377.474,438.933h-43a9.511,9.511,0,0,1-9.5-9.5v-43a9.511,9.511,0,0,1,9.5-9.5h43a9.511,9.511,0,0,1,9.5,9.5v43a9.511,9.511,0,0,1-9.5,9.5Zm-43-60a7.508,7.508,0,0,0-7.5,7.5v43a7.508,7.508,0,0,0,7.5,7.5h43a7.508,7.508,0,0,0,7.5-7.5v-43a7.508,7.508,0,0,0-7.5-7.5Z" transform="translate(26.136 1671.54)" fill="#3f3d56"/>
    <path id="Path_724" data-name="Path 724" d="M369.974,421.433h-28a3,3,0,0,1-3-3v-21a3,3,0,0,1,3-3h7.882a2.981,2.981,0,0,1,2.555,1.427l2.2,3.573h15.364a3,3,0,0,1,3,3v16a3,3,0,0,1-3,3Z" transform="translate(26.136 1671.54)" fill="#bbc392"/>
    <path id="Path_725" data-name="Path 725" d="M369.064,432.042q.21.384.388.79a10.38,10.38,0,0,1-6.393,14.109,9.721,9.721,0,0,1-.988.25l-19.1,49.4a8.061,8.061,0,0,1-8.163,5.1l-.1-.018-41.4-12.462a8.9,8.9,0,1,1,5.286-16.993l29.29,9.4,22.676-40.2a9.873,9.873,0,0,1-.511-1.289,10.38,10.38,0,0,1,19.007-8.091Z" transform="translate(26.136 1671.54)" fill="#a0616a"/>
    <g id="Group_35" data-name="Group 35" transform="translate(-806.429 288.929)">
      <g id="Group_34" data-name="Group 34" transform="translate(303.13 -33.777)">
        <path id="Path_704" data-name="Path 704" d="M944.073,490.54H547.331c-11.887-.018-21.52-13.056-21.534-29.145V346.579c.013-16.089,9.647-29.127,21.534-29.145H944.073c11.887.019,21.52,13.057,21.534,29.146V461.394c-.014,16.089-9.647,29.127-21.534,29.145Z" transform="translate(422.022 1425.213)" fill="#fff"/>
      </g>
      <path id="Path_705" data-name="Path 705" d="M942.986,490.04H547.418c-12.211-.018-22.107-13.316-22.121-29.725V346.659c.014-16.409,9.909-29.707,22.121-29.725H942.986c12.211.018,22.107,13.316,22.121,29.725V460.314C965.092,476.723,955.2,490.021,942.986,490.04ZM547.418,320.43c-10.775.016-19.506,11.75-19.518,26.228V460.314c.012,14.479,8.744,26.212,19.518,26.228H942.986c10.775-.016,19.506-11.75,19.518-26.228V346.659c-.012-14.479-8.744-26.212-19.518-26.228Z" transform="translate(726.935 1388.203)" fill="#3f3d56"/>
      <path id="Path_758" data-name="Path 758" d="M928.414,291.083c0-14.705-11.929-49.6-26.644-49.6s-26.644,34.895-26.644,49.6a26.644,26.644,0,0,0,53.289,0Z" transform="translate(731.869 1495.027) scale(0.99 1)" fill="#3f3d56"/>
      <path id="Path_759" data-name="Path 759" d="M901.769,350.084a.3.3,0,0,1-.3-.3v-62.2a.3.3,0,0,1,.609,0v62.2a.3.3,0,0,1-.3.3Z" transform="translate(731.683 1448.894) scale(0.99 1)" fill="#ccc"/>
      <path id="Path_761" data-name="Path 761" d="M901.882,313.875a.418.418,0,0,1-.385-.279.478.478,0,0,1,.09-.491l11.932-12.889a.4.4,0,0,1,.59,0,.477.477,0,0,1,0,.638l-11.932,12.889A.4.4,0,0,1,901.882,313.875Z" transform="translate(731.682 1459.019) scale(0.99 1)" fill="#ccc"/>
      <path id="Path_767" data-name="Path 767" d="M918.306,347.666a.3.3,0,0,1-.2-.073l-3.607-3.1a.3.3,0,0,1,.392-.456l3.607,3.1a.3.3,0,0,1-.2.529Z" transform="translate(713.617 1405.612) scale(0.99 1)" fill="#ccc"/>
      <path id="Path_778" data-name="Path 778" d="M727.888,477.138q8.818,8.1,17.521,16.314c-1.489.083-3.034.149-4.622.2-2.241.074-4.573.107-7.02.107-26.848,0-40.474-4.407-53.637-8.674-12.5-4.043-24.309-7.863-48.552-7.863s-36.059,3.82-48.552,7.863c-13.172,4.266-26.8,8.674-53.645,8.674s-40.474-4.407-53.645-8.674c-12.212-3.952-23.764-7.69-46.9-7.855-.546-.008-1.091-.008-1.654-.008V460.684c.554,0,1.108,0,1.654.008,25.764.174,39.093,4.49,51.992,8.657,12.5,4.052,24.309,7.872,48.552,7.872s36.05-3.82,48.552-7.872c13.172-4.258,26.79-8.665,53.646-8.665s40.466,4.407,53.637,8.665c10.443,3.382,20.407,6.606,37.539,7.574C724.4,477.022,726.1,477.088,727.888,477.138Z" transform="translate(873.27 1327.749) scale(0.99 1)" fill="#bbc392"/>
      <path id="Path_779" data-name="Path 779" d="M938.17,477.22v16.537c-26.856,0-40.474-4.407-53.645-8.674-12.5-4.043-24.309-7.863-48.552-7.863s-36.058,3.82-48.56,7.863c-.678.223-1.364.438-2.051.661-1.174.38-2.365.761-3.572,1.133q-6.846-6.71-13.742-13.3c1.281-.314,2.522-.645,3.746-.984,3.646-1.009,7.061-2.117,10.534-3.241,13.172-4.258,26.79-8.665,53.645-8.665s40.474,4.407,53.646,8.665C902.119,473.4,913.927,477.22,938.17,477.22Z" transform="translate(731.683 1327.749) scale(0.99 1)" fill="#bbc392"/>
      <path id="Path_780" data-name="Path 780" d="M449.674,236.315c-27.963-10.6-57.384-20.65-87.44-29.871l-1.509-.463v31.275h91.432Zm-86.951-.1V207.8c28.592,8.8,56.59,18.354,83.29,28.413Zm228.469,64.373q-18.14-9.815-37.219-19.184-5.26-2.585-10.585-5.129-32.5-15.536-67.13-29.552l-.27-.109H360.725V301.47h232.1Zm-228.469-.159V247.655H475.3q33.4,13.52,64.982,28.553,5.485,2.609,10.894,5.259,18.911,9.25,36.939,18.963Zm228.469.159q-18.14-9.815-37.219-19.184-5.26-2.585-10.585-5.129-32.5-15.536-67.13-29.552l-.27-.109H360.725V301.47h232.1Zm-228.469-.159V247.655H475.3q33.4,13.52,64.982,28.553,5.485,2.609,10.894,5.259,18.911,9.25,36.939,18.963Zm86.951-64.116c-27.963-10.6-57.384-20.65-87.44-29.871l-1.509-.463v31.275h91.432Zm-86.951-.1V207.8c28.592,8.8,56.59,18.354,83.29,28.413Zm86.951.1c-27.963-10.6-57.384-20.65-87.44-29.871l-1.509-.463v31.275h91.432Zm-86.951-.1V207.8c28.592,8.8,56.59,18.354,83.29,28.413Zm228.469,64.373q-18.14-9.815-37.219-19.184-5.26-2.585-10.585-5.129-32.5-15.536-67.13-29.552l-.27-.109H360.725V301.47h232.1Zm-228.469-.159V247.655H475.3q33.4,13.52,64.982,28.553,5.485,2.609,10.894,5.259,18.911,9.25,36.939,18.963Zm-100.892,10.4v1.04h78.914v15.079H261.831v1.04h80.912V310.83Zm98.894,26.518v10.537l2-.1v-9.4h307.7v-1.04Zm309.7-25.478v-1.04h-309.7v17.159h309.7v-1.04h-307.7V311.87ZM483.832,236.216c-38.332-15.39-78.813-29.272-121.108-41.531V184.155l-2,.1v10.611l1.539.88c42.122,12.226,82.44,26.066,120.618,41.4l.27.109H670.426v-1.04Zm-143.087,0H261.831v1.04h80.912V185.12l-2,.1Zm329.681,10.4H505.79l2.153.92q30.405,13.021,59.707,27.62,4.166,2.075,8.3,4.183,20.59,10.471,40.376,21.625l1.647.507h52.45v-1.04H618.1q-19.571-11.044-39.991-21.448-4.083-2.082-8.2-4.136-28.667-14.316-58.559-27.191H670.426ZM261.831,337.347v1.04h78.914v10.461l2-.1V337.347Zm0-90.732v1.04h78.914V300.43H261.831v1.04h80.912V246.615Zm187.843-10.3c-27.963-10.6-57.384-20.65-87.44-29.871l-1.509-.463v31.275h91.432Zm-86.951-.1V207.8c28.592,8.8,56.59,18.354,83.29,28.413Zm228.469,64.373q-18.14-9.815-37.219-19.184-5.26-2.585-10.585-5.129-32.5-15.536-67.13-29.552l-.27-.109H360.725V301.47h232.1Zm-228.469-.159V247.655H475.3q33.4,13.52,64.982,28.553,5.485,2.609,10.894,5.259,18.911,9.25,36.939,18.963Zm86.951-64.116c-27.963-10.6-57.384-20.65-87.44-29.871l-1.509-.463v31.275h91.432Zm-86.951-.1V207.8c28.592,8.8,56.59,18.354,83.29,28.413Zm228.469,64.373q-18.14-9.815-37.219-19.184-5.26-2.585-10.585-5.129-32.5-15.536-67.13-29.552l-.27-.109H360.725V301.47h232.1Zm-228.469-.159V247.655H475.3q33.4,13.52,64.982,28.553,5.485,2.609,10.894,5.259,18.911,9.25,36.939,18.963Z" transform="translate(996.82 1524.643) scale(0.99 1)" fill="#3f3d56"/>
      <path id="Path_781" data-name="Path 781" d="M659.267,462.514c0-14.562,11.8-49.117,26.367-49.117S712,447.952,712,462.514a26.367,26.367,0,1,1-52.734,0Z" transform="translate(831.888 1342.699) scale(0.99 1)" fill="#f2f2f2"/>
      <path id="Path_782" data-name="Path 782" d="M685.634,526.661a.217.217,0,0,1-.217-.217v-90.9a.217.217,0,1,1,.434,0v90.9a.217.217,0,0,1-.217.217Z" transform="translate(832.747 1321.855) scale(0.99 1)" fill="#3f3d56"/>
      <path id="Path_821" data-name="Path 821" d="M502.678,442.09a.573.573,0,0,0,0-1.147h-5.447V438.65h5.447a.573.573,0,0,0,0-1.147H456.233a.573.573,0,1,0,0,1.147h5.447v2.294h-5.447a.573.573,0,1,0,0,1.147h5.447v2.294h-5.447a.573.573,0,1,0,0,1.147h5.447v2.294h-4.874a1.147,1.147,0,0,0,0,2.294h4.64a.854.854,0,0,0-.053.287v8.028a.86.86,0,0,0,1.72,0V450.4a.854.854,0,0,0-.053-.287H495.85a.853.853,0,0,0-.053.287v8.028a.86.86,0,1,0,1.72,0V450.4a.855.855,0,0,0-.053-.287h4.64a1.147,1.147,0,0,0,0-2.294h-4.874V445.53h5.447a.573.573,0,0,0,0-1.147h-5.447V442.09Zm-39.851-3.44h33.257v2.294H462.827Zm33.257,9.174H462.827V445.53h33.257Zm0-3.44H462.827V442.09h33.257Z" transform="translate(911.705 1346.961) scale(0.99 1)" fill="#3f3d56"/>
      <path id="Path_822" data-name="Path 822" d="M681.86,510.718a.573.573,0,1,0,0-1.147h-5.447v-2.294h5.447a.573.573,0,1,0,0-1.147H635.415a.573.573,0,1,0,0,1.147h5.447v2.294h-5.447a.573.573,0,1,0,0,1.147h5.447v2.294h-5.447a.573.573,0,1,0,0,1.147h5.447v2.294h-4.874a1.147,1.147,0,0,0,0,2.294h4.64a.855.855,0,0,0-.053.287v8.028a.86.86,0,0,0,1.72,0v-8.028a.856.856,0,0,0-.053-.287h32.789a.853.853,0,0,0-.053.287v8.028a.86.86,0,0,0,1.72,0v-8.028a.856.856,0,0,0-.053-.287h4.64a1.147,1.147,0,0,0,0-2.294h-4.874v-2.294h5.447a.573.573,0,0,0,0-1.147h-5.447v-2.294Zm-39.851-3.44h33.257v2.294H642.009Zm33.257,9.174H642.009v-2.294h33.257Zm0-3.44H642.009v-2.294h33.257Z" transform="translate(841.168 1302.358) scale(0.99 1)" fill="#3f3d56"/>
      <path id="Path_823" data-name="Path 823" d="M826.393,435.475a.573.573,0,0,0,0-1.147h-5.447v-2.294h5.447a.573.573,0,0,0,0-1.147H779.948a.573.573,0,1,0,0,1.147h5.447v2.294h-5.447a.573.573,0,1,0,0,1.147h5.447v2.294h-5.447a.573.573,0,1,0,0,1.147h5.447v2.294h-4.874a1.147,1.147,0,1,0,0,2.294h4.64a.855.855,0,0,0-.053.287v8.028a.86.86,0,0,0,1.72,0v-8.028a.856.856,0,0,0-.053-.287h32.789a.855.855,0,0,0-.053.287v8.028a.86.86,0,1,0,1.72,0v-8.028a.855.855,0,0,0-.053-.287h4.64a1.147,1.147,0,0,0,0-2.294h-4.874v-2.294h5.447a.573.573,0,0,0,0-1.147h-5.447v-2.294Zm-39.851-3.44H819.8v2.294H786.542Zm33.257,9.174H786.542v-2.294H819.8Zm0-3.44H786.542v-2.294H819.8Z" transform="translate(784.271 1351.26) scale(0.99 1)" fill="#3f3d56"/>
      <path id="Path_824" data-name="Path 824" d="M608.717,579.65c0-14.705-11.929-49.6-26.644-49.6s-26.644,34.895-26.644,49.6a26.644,26.644,0,1,0,53.288,0Z" transform="translate(872.004 1250.259) scale(0.99 1)" fill="#f2f2f2"/>
      <path id="Path_825" data-name="Path 825" d="M582.072,638.651a.3.3,0,0,1-.3-.3v-62.2a.3.3,0,0,1,.609,0v62.2a.3.3,0,0,1-.3.3Z" transform="translate(870.849 1227.047) scale(0.99 1)" fill="#ccc"/>
      <path id="Path_828" data-name="Path 828" d="M354.587,291.083c0-14.705-11.929-49.6-26.644-49.6s-26.644,34.895-26.644,49.6a26.644,26.644,0,0,0,53.288,0Z" transform="translate(996.419 1493.834) scale(0.99 1)" fill="#3f3d56"/>
      <path id="Path_829" data-name="Path 829" d="M327.942,350.084a.3.3,0,0,1-.3-.3v-62.2a.3.3,0,0,1,.609,0v62.2a.3.3,0,0,1-.3.3Z" transform="translate(996.82 1448.894) scale(0.99 1)" fill="#ccc"/>
      <path id="Path_831" data-name="Path 831" d="M327.942,309.4a.3.3,0,0,1-.215-.52l8.707-8.707a.3.3,0,1,1,.431.431l-8.707,8.707a.3.3,0,0,1-.215.089Z" transform="translate(996.82 1438.089) scale(0.99 1)" fill="#ccc"/>
      <path id="Path_834" data-name="Path 834" d="M310.207,347.666a.3.3,0,0,1-.2-.072l-3.607-3.1a.3.3,0,0,1,.392-.456l3.608,3.1a.3.3,0,0,1-.2.529Z" transform="translate(1013.522 1397.156) scale(0.99 1)" fill="#ccc"/>
      <path id="Path_837" data-name="Path 837" d="M344.479,347.666a.3.3,0,0,1-.2-.072l-3.608-3.1a.3.3,0,1,1,.392-.456l3.608,3.1a.3.3,0,0,1-.2.529Z" transform="translate(980.874 1399.43) scale(0.99 1)" fill="#ccc"/>
      <path id="Path_838" data-name="Path 838" d="M914.357,578.823c0-14.705-11.929-49.6-26.644-49.6s-26.644,34.895-26.644,49.6a26.644,26.644,0,1,0,53.288,0Z" transform="translate(731.55 1248.033) scale(0.99 1)" fill="#bbc392"/>
      <path id="Path_839" data-name="Path 839" d="M887.713,637.824a.3.3,0,0,1-.3-.3v-62.2a.3.3,0,0,1,.609,0v62.2a.3.3,0,0,1-.3.3Z" transform="translate(731.683 1227.466) scale(0.99 1)" fill="#ccc"/>
      <path id="Path_841" data-name="Path 841" d="M887.713,597.14a.3.3,0,0,1-.215-.52l8.707-8.707a.3.3,0,1,1,.431.431l-8.707,8.707a.3.3,0,0,1-.215.089Z" transform="translate(731.683 1255.644) scale(0.99 1)" fill="#ccc"/>
      <path id="Path_843" data-name="Path 843" d="M539.683,638.671H513.219a2.746,2.746,0,0,1-2.743-2.743V584.615a2.746,2.746,0,0,1,2.743-2.743h26.464a2.746,2.746,0,0,1,2.743,2.743v51.313A2.746,2.746,0,0,1,539.683,638.671Z" transform="translate(884.974 1224.409) scale(0.99 1)" fill="#3f3d56"/>
      <path id="Path_844" data-name="Path 844" d="M523.869,638.671H478.042a2.746,2.746,0,0,1-2.743-2.743V584.615a2.746,2.746,0,0,1,2.743-2.743h45.827a2.746,2.746,0,0,1,2.743,2.743v51.313A2.746,2.746,0,0,1,523.869,638.671Z" transform="translate(936.534 1224.431) scale(0.99 1)" fill="#bbc392"/>
      <path id="Path_847" data-name="Path 847" d="M509.992,607.206H503.86a.808.808,0,0,1-.807-.807V597.04a.808.808,0,0,1,.807-.807h6.132a.808.808,0,0,1,.807.807V606.4A.808.808,0,0,1,509.992,607.206Z" transform="translate(898.844 1222.605) scale(0.99 1)" fill="#fff"/>
      <path id="Path_849" data-name="Path 849" d="M509.992,624.31H503.86a.808.808,0,0,1-.807-.807v-9.359a.808.808,0,0,1,.807-.807h6.132a.808.808,0,0,1,.807.807V623.5a.808.808,0,0,1-.807.807Z" transform="translate(898.844 1230.59) scale(0.99 1)" fill="#fff"/>
      <path id="Path_850" data-name="Path 850" d="M312.432,422.638h-6.09a1.715,1.715,0,0,1-1.713-1.713V406.841a1.715,1.715,0,0,1,1.713-1.713h6.09a1.715,1.715,0,0,1,1.713,1.713v14.084A1.715,1.715,0,0,1,312.432,422.638Z" transform="translate(996.82 1369.217) scale(0.99 1)" fill="#3f3d56"/>
      <path id="Path_852" data-name="Path 852" d="M317.761,553.959H286.548a3.239,3.239,0,0,1-3.236-3.235V424.731a3.239,3.239,0,0,1,3.235-3.235h31.213A3.239,3.239,0,0,1,321,424.731V550.724A3.239,3.239,0,0,1,317.761,553.959Z" transform="translate(995.304 1306.015) scale(0.99 1)" fill="#bbc392"/>
      <path id="Path_855" data-name="Path 855" d="M312.812,450.044H305.58a.953.953,0,0,1-.952-.952V438.054a.953.953,0,0,1,.952-.952h7.232a.953.953,0,0,1,.952.952v11.039a.953.953,0,0,1-.952.952Z" transform="translate(996.82 1350.071) scale(0.99 1)" fill="#fff"/>
      <path id="Path_861" data-name="Path 861" d="M312.812,510.566H305.58a.953.953,0,0,1-.952-.952V498.576a.953.953,0,0,1,.952-.952h7.232a.953.953,0,0,1,.952.952v11.039a.953.953,0,0,1-.952.952Z" transform="translate(996.82 1348.495) scale(0.99 1)" fill="#fff"/>
      <path id="Path_863" data-name="Path 863" d="M312.812,530.74H305.58a.953.953,0,0,1-.952-.952V518.75a.953.953,0,0,1,.952-.952h7.232a.953.953,0,0,1,.952.952v11.039a.953.953,0,0,1-.952.952Z" transform="translate(996.82 1322.991) scale(0.99 1)" fill="#fff"/>
      <path id="Path_868" data-name="Path 868" d="M798.77,607.379h-6.132a.808.808,0,0,1-.807-.807v-9.359a.808.808,0,0,1,.807-.807h6.132a.808.808,0,0,1,.807.807v9.359A.808.808,0,0,1,798.77,607.379Z" transform="translate(511.373 1141.44) scale(0.99 1)" fill="#fff"/>
      <path id="Path_869" data-name="Path 869" d="M810.711,607.379h-6.132a.808.808,0,0,1-.807-.807v-9.359a.808.808,0,0,1,.807-.807h6.132a.808.808,0,0,1,.807.807v9.359a.808.808,0,0,1-.807.807Z" transform="translate(787.076 1240.772) scale(0.99 1)" fill="#fff"/>
      <path id="Path_872" data-name="Path 872" d="M798.77,607.379h-6.132a.808.808,0,0,1-.807-.807v-9.359a.808.808,0,0,1,.807-.807h6.132a.808.808,0,0,1,.807.807v9.359A.808.808,0,0,1,798.77,607.379Z" transform="translate(499.36 1206.801) scale(0.99 1)" fill="#fff"/>
      <path id="Path_873" data-name="Path 873" d="M798.77,607.379h-6.132a.808.808,0,0,1-.807-.807v-9.359a.808.808,0,0,1,.807-.807h6.132a.808.808,0,0,1,.807.807v9.359A.808.808,0,0,1,798.77,607.379Z" transform="translate(499.359 1179.83) scale(0.99 1)" fill="#fff"/>
      <path id="Path_874" data-name="Path 874" d="M798.77,607.379h-6.132a.808.808,0,0,1-.807-.807v-9.359a.808.808,0,0,1,.807-.807h6.132a.808.808,0,0,1,.807.807v9.359A.808.808,0,0,1,798.77,607.379Z" transform="translate(499.359 1141.44) scale(0.99 1)" fill="#fff"/>
      <path id="Path_875" data-name="Path 875" d="M349.459,351.919a.7.7,0,0,1-.445-.156l-8.2-6.658a.622.622,0,0,1-.074-.912.711.711,0,0,1,.964-.07l8.2,6.658a.624.624,0,0,1,.2.715.683.683,0,0,1-.642.422Z" transform="translate(976.063 1410.757) scale(0.99 1)" fill="#ccc"/>
      <path id="Path_876" data-name="Path 876" d="M349.459,351.919a.7.7,0,0,1-.445-.156l-8.2-6.658a.622.622,0,0,1-.074-.912.711.711,0,0,1,.964-.07l8.2,6.658a.624.624,0,0,1,.2.715.683.683,0,0,1-.642.422Z" transform="translate(976.064 1436.757) scale(0.99 1)" fill="#ccc"/>
      <path id="Path_877" data-name="Path 877" d="M327.942,309.4a.3.3,0,0,1-.215-.52l8.707-8.707a.3.3,0,1,1,.431.431l-8.707,8.707a.3.3,0,0,1-.215.089Z" transform="translate(997.107 1452.833) scale(0.99 1)" fill="#ccc"/>
      <path id="Path_878" data-name="Path 878" d="M327.942,309.4a.3.3,0,0,1-.215-.52l8.707-8.707a.3.3,0,1,1,.431.431l-8.707,8.707a.3.3,0,0,1-.215.089Z" transform="translate(997.107 1452.833) scale(0.99 1)" fill="#ccc"/>
      <path id="Path_879" data-name="Path 879" d="M328.035,313.532a.4.4,0,0,1-.367-.271.474.474,0,0,1,.086-.479l11.367-12.569a.371.371,0,0,1,.562,0,.473.473,0,0,1,0,.622L328.317,313.4a.378.378,0,0,1-.281.129Z" transform="translate(997.222 1474.478) scale(0.99 1)" fill="#ccc"/>
      <path id="Path_880" data-name="Path 880" d="M901.769,309.4a.3.3,0,0,1-.215-.52l8.707-8.707a.3.3,0,1,1,.431.431l-8.707,8.707a.3.3,0,0,1-.215.089Z" transform="translate(732.002 1478.725) scale(0.99 1)" fill="#ccc"/>
      <path id="Path_881" data-name="Path 881" d="M901.769,309.4a.3.3,0,0,1-.215-.52l8.707-8.707a.3.3,0,1,1,.431.431l-8.707,8.707a.3.3,0,0,1-.215.089Z" transform="translate(732.002 1478.725) scale(0.99 1)" fill="#ccc"/>
      <path id="Path_882" data-name="Path 882" d="M887.713,597.14a.3.3,0,0,1-.215-.52l8.707-8.707a.3.3,0,1,1,.431.431l-8.707,8.707a.3.3,0,0,1-.215.089Z" transform="translate(731.683 1255.644) scale(0.99 1)" fill="#ccc"/>
    </g>
  </g>
</svg>
