<?xml version="1.0" encoding="utf-8"?>
<!-- Generator: Adobe Illustrator 22.0.0, SVG Export Plug-In . SVG Version: 6.00 Build 0)  -->
<svg version="1.1" id="Capa_1" xmlns="http://www.w3.org/2000/svg" xmlns:xlink="http://www.w3.org/1999/xlink" x="0px" y="0px"
	 viewBox="0 0 521.1 600" style="enable-background:new 0 0 521.1 600;" xml:space="preserve">
<style type="text/css">
	.st0{fill:#58612C;}
	.st1{fill:#FFFFFF;}
</style>
<g>
	<path class="st0" d="M355.8,517v1.5c-9.8,7.6-15.1,11.5-16.2,11.5c-2.1,0-3.8-2.1-5.3-6.4l14.1-15.7h1.3L355.8,517z"/>
	<path class="st0" d="M355.8,517v1.5c-9.8,7.6-15.1,11.5-16.2,11.5c-2.1,0-3.8-2.1-5.3-6.4l14.1-15.7h1.3L355.8,517z"/>
	<path class="st0" d="M39.7,506.5c4.9,1.8,7.4,3.7,7.4,5.6c-3.4,7.8-9,19.8-16.9,36c0.8,16.4,1.4,32.5,1.9,48.1c0,2-1.2,3-3.8,3
		c-1.4,0-3.6-0.4-6.4-1.3v-0.8C20,564,19,547.5,19.1,547.5C6.7,524.8,0.4,512.9,0.2,511.9c3.8-2.8,6.3-4.3,7.4-4.3h0.7
		c0.9,0.2,4,5.3,9.5,15.2c5,9.1,7.2,13.4,6.6,12.8c8.5-18.3,13.2-28,14.1-29.2H39.7z"/>
	<path class="st0" d="M39.7,506.5c4.9,1.8,7.4,3.7,7.4,5.6c-3.4,7.8-9,19.8-16.9,36c0.8,16.4,1.4,32.5,1.9,48.1c0,2-1.2,3-3.8,3
		c-1.4,0-3.6-0.4-6.4-1.3v-0.8C20,564,19,547.5,19.1,547.5C6.7,524.8,0.4,512.9,0.2,511.9c3.8-2.8,6.3-4.3,7.4-4.3h0.7
		c0.9,0.2,4,5.3,9.5,15.2c5,9.1,7.2,13.4,6.6,12.8c8.5-18.3,13.2-28,14.1-29.2H39.7z"/>
	<path class="st0" d="M59.7,538.4c0,11.5,2,23.7,6,36.5c2.7,7.1,6.4,10.6,11.2,10.6c4.9-0.5,7.7-1.3,8.1-2.4c1.6-1.1,2.9-3.5,4-7.2
		c1.3-4.1,1.9-9.8,1.9-17.2v-0.3c0-15.4-1.5-27-4.4-34.6c-2.5-4.4-5.7-6.6-9.5-6.6h-0.4c-4.1,0.4-8.2,2.2-12.5,5.5
		c-1.8,1.5-3.2,4.2-4,8C59.8,533.8,59.7,536.3,59.7,538.4 M72.8,506.5c11.7,0,19,2.7,21.8,8.1c2.2,3.2,3.9,8.6,5,16.3
		c1.6,11.4,2.4,20.8,2.4,28v2.5c0,18.1-5.6,30-16.7,35.8c-3.3,1.3-6.4,2-9.3,2h-1c-8.8,0-16-7.2-21.3-21.7
		c-3.6-12.3-5.4-24.2-5.4-35.8c0-18.3,6.1-29.7,18.2-34.2C69.3,506.9,71.4,506.5,72.8,506.5"/>
	<path class="st0" d="M59.7,538.4c0,11.5,2,23.7,6,36.5c2.7,7.1,6.4,10.6,11.2,10.6c4.9-0.5,7.7-1.3,8.1-2.4c1.6-1.1,2.9-3.5,4-7.2
		c1.3-4.1,1.9-9.8,1.9-17.2v-0.3c0-15.4-1.5-27-4.4-34.6c-2.5-4.4-5.7-6.6-9.5-6.6h-0.4c-4.1,0.4-8.2,2.2-12.5,5.5
		c-1.8,1.5-3.2,4.2-4,8C59.8,533.8,59.7,536.3,59.7,538.4z M72.8,506.5c11.7,0,19,2.7,21.8,8.1c2.2,3.2,3.9,8.6,5,16.3
		c1.6,11.4,2.4,20.8,2.4,28v2.5c0,18.1-5.6,30-16.7,35.8c-3.3,1.3-6.4,2-9.3,2h-1c-8.8,0-16-7.2-21.3-21.7
		c-3.6-12.3-5.4-24.2-5.4-35.8c0-18.3,6.1-29.7,18.2-34.2C69.3,506.9,71.4,506.5,72.8,506.5z"/>
	<path class="st0" d="M114,506.5c5.1,0,7.6,0.5,7.6,1.4l13.9,29.6H134l14.1-31.1c7.8,0.1,11.8,0.7,11.8,1.6
		c0.7,44.4,1.1,71.4,1.1,81l0.2,4.9l-0.2,4c-1.1,0.9-2.6,1.4-4.5,1.4c-4.9,0-7.3-0.6-7.3-1.7l-1.1-68.4v0.8h1.9
		c-8.7,16.4-13.4,25-14.2,25.7h-1.5L119.7,533h1.8v50.2c0,10.6-0.6,15.9-1.7,15.9l-1.4,0.3h-1.9c-4.3-0.3-6.4-0.9-6.4-1.9l0.1-77.1
		v-12.2C110.2,507.1,111.5,506.5,114,506.5"/>
	<path class="st0" d="M114,506.5c5.1,0,7.6,0.5,7.6,1.4l13.9,29.6H134l14.1-31.1c7.8,0.1,11.8,0.7,11.8,1.6
		c0.7,44.4,1.1,71.4,1.1,81l0.2,4.9l-0.2,4c-1.1,0.9-2.6,1.4-4.5,1.4c-4.9,0-7.3-0.6-7.3-1.7l-1.1-68.4v0.8h1.9
		c-8.7,16.4-13.4,25-14.2,25.7h-1.5L119.7,533h1.8v50.2c0,10.6-0.6,15.9-1.7,15.9l-1.4,0.3h-1.9c-4.3-0.3-6.4-0.9-6.4-1.9l0.1-77.1
		v-12.2C110.2,507.1,111.5,506.5,114,506.5z"/>
	<path class="st0" d="M180.6,538.4c0,11.5,2,23.7,6,36.5c2.7,7.1,6.4,10.6,11.2,10.6c5-0.5,7.7-1.3,8.1-2.4c1.6-1.1,2.9-3.5,4-7.2
		c1.3-4.1,1.9-9.8,1.9-17.2v-0.3c0-15.4-1.4-27-4.4-34.6c-2.5-4.4-5.7-6.6-9.5-6.6h-0.4c-4.1,0.4-8.2,2.2-12.5,5.5
		c-1.8,1.5-3.2,4.2-4,8C180.7,533.8,180.6,536.3,180.6,538.4 M193.7,506.5c11.7,0,19,2.7,21.8,8.1c2.2,3.2,3.9,8.6,5.1,16.3
		c1.6,11.4,2.4,20.8,2.4,28v2.5c0,18.1-5.6,30-16.8,35.8c-3.3,1.3-6.4,2-9.3,2h-1c-8.8,0-16-7.2-21.3-21.7
		c-3.6-12.3-5.5-24.2-5.5-35.8c0-18.3,6.1-29.7,18.2-34.2C190.2,506.9,192.3,506.5,193.7,506.5"/>
	<path class="st0" d="M180.6,538.4c0,11.5,2,23.7,6,36.5c2.7,7.1,6.4,10.6,11.2,10.6c5-0.5,7.7-1.3,8.1-2.4c1.6-1.1,2.9-3.5,4-7.2
		c1.3-4.1,1.9-9.8,1.9-17.2v-0.3c0-15.4-1.4-27-4.4-34.6c-2.5-4.4-5.7-6.6-9.5-6.6h-0.4c-4.1,0.4-8.2,2.2-12.5,5.5
		c-1.8,1.5-3.2,4.2-4,8C180.7,533.8,180.6,536.3,180.6,538.4z M193.7,506.5c11.7,0,19,2.7,21.8,8.1c2.2,3.2,3.9,8.6,5.1,16.3
		c1.6,11.4,2.4,20.8,2.4,28v2.5c0,18.1-5.6,30-16.8,35.8c-3.3,1.3-6.4,2-9.3,2h-1c-8.8,0-16-7.2-21.3-21.7
		c-3.6-12.3-5.5-24.2-5.5-35.8c0-18.3,6.1-29.7,18.2-34.2C190.2,506.9,192.3,506.5,193.7,506.5z"/>
	<path class="st0" d="M234.7,506.3c2.7,0.2,5.2,0.8,7.6,1.6l-0.5,80.8c15.1-1.2,25.8-1.9,32.2-2.3c1.2,0,1.9,1.8,2.2,5.4
		c-0.1,3.9-0.7,5.9-1.8,5.9l-42.5,1.6l-0.8-0.8v-89.3C231,507.2,232.2,506.3,234.7,506.3"/>
	<path class="st0" d="M234.7,506.3c2.7,0.2,5.2,0.8,7.6,1.6l-0.5,80.8c15.1-1.2,25.8-1.9,32.2-2.3c1.2,0,1.9,1.8,2.2,5.4
		c-0.1,3.9-0.7,5.9-1.8,5.9l-42.5,1.6l-0.8-0.8v-89.3C231,507.2,232.2,506.3,234.7,506.3z"/>
	<path class="st0" d="M319.7,529.8l-8.6,34.2l14.4-1.7v0.8l-7.8-33.4H319.7z M315.9,506.9h0.4c1.9,0,4.5,1.6,7.9,4.7l21.2,84.5
		c-3.1,2.1-5.6,3.2-7.5,3.2h-0.5c-2.3,0-3.7-2-4.3-6.1l-5.1-19.9h0.9c-13.5,1.6-20.4,2.5-20.9,2.7c-2.6,10.7-4.5,17.5-5.6,20.4
		l-0.7,0.7h-1.6c-1.6-0.1-3.9-1.2-7-3c13.6-56.8,20.6-85.6,21.1-86.6L315.9,506.9z"/>
	<path class="st0" d="M319.7,529.8l-8.6,34.2l14.4-1.7v0.8l-7.8-33.4H319.7z M315.9,506.9h0.4c1.9,0,4.5,1.6,7.9,4.7l21.2,84.5
		c-3.1,2.1-5.6,3.2-7.5,3.2h-0.5c-2.3,0-3.7-2-4.3-6.1l-5.1-19.9h0.9c-13.5,1.6-20.4,2.5-20.9,2.7c-2.6,10.7-4.5,17.5-5.6,20.4
		l-0.7,0.7h-1.6c-1.6-0.1-3.9-1.2-7-3c13.6-56.8,20.6-85.6,21.1-86.6L315.9,506.9z"/>
	<path class="st0" d="M412.5,506.4c1.2,0,2,2.2,2.7,6.6c0,1.5-1.1,2.3-3.4,2.3l-14.9,0.9l-0.6,80.9c-0.3,1.4-1.4,2.2-3.2,2.2h-0.3
		c-1.9,0-4.4-0.5-7.3-1.6v-80.9l-13.3,0.7l-1.6,0.5c-0.8-2.5-1.2-5.3-1.2-8.3v-0.3c0-0.6,0.3-1.5,0.9-2.5L412.5,506.4z"/>
	<path class="st0" d="M412.5,506.4c1.2,0,2,2.2,2.7,6.6c0,1.5-1.1,2.3-3.4,2.3l-14.9,0.9l-0.6,80.9c-0.3,1.4-1.4,2.2-3.2,2.2h-0.3
		c-1.9,0-4.4-0.5-7.3-1.6v-80.9l-13.3,0.7l-1.6,0.5c-0.8-2.5-1.2-5.3-1.2-8.3v-0.3c0-0.6,0.3-1.5,0.9-2.5L412.5,506.4z"/>
	<path class="st0" d="M425.6,506.5c26.9,0.3,40.4,1.1,40.4,2.5c0.6,0.2,0.9,1.9,0.9,5c0,1.9-1.3,2.8-4.1,2.8l-18.4-0.3
		c-5.8,0.1-8.9,0.2-9.2,0.4l0.2,10.6V552l21.7,0.8c1.1,2.1,1.7,3.8,1.7,5.3v0.1c0,2.4-1.9,3.6-5.8,3.6c-0.5,0.3-6.4,0.5-17.7,0.6
		v17.9l-0.1,7.9H434l16.3-0.2c10.3,0,15.4,0.6,15.4,1.7c0.6,1,1,2.4,1,4.2v2.9l-1,0.9l-34,1.4c-3.3-0.2-6.3-0.7-8.9-1.6v-89.5
		C422.9,507.3,423.8,506.8,425.6,506.5"/>
	<path class="st0" d="M425.6,506.5c26.9,0.3,40.4,1.1,40.4,2.5c0.6,0.2,0.9,1.9,0.9,5c0,1.9-1.3,2.8-4.1,2.8l-18.4-0.3
		c-5.8,0.1-8.9,0.2-9.2,0.4l0.2,10.6V552l21.7,0.8c1.1,2.1,1.7,3.8,1.7,5.3v0.1c0,2.4-1.9,3.6-5.8,3.6c-0.5,0.3-6.4,0.5-17.7,0.6
		v17.9l-0.1,7.9H434l16.3-0.2c10.3,0,15.4,0.6,15.4,1.7c0.6,1,1,2.4,1,4.2v2.9l-1,0.9l-34,1.4c-3.3-0.2-6.3-0.7-8.9-1.6v-89.5
		C422.9,507.3,423.8,506.8,425.6,506.5z"/>
	<path class="st0" d="M479.5,506.3c2.7,0.2,5.2,0.8,7.6,1.6l-0.5,80.8c15-1.2,25.8-1.9,32.2-2.3c1.2,0,1.9,1.8,2.2,5.4
		c-0.1,3.9-0.7,5.9-1.8,5.9l-42.6,1.6l-0.9-0.8v-89.3C475.8,507.2,477.1,506.3,479.5,506.3"/>
	<path class="st0" d="M479.5,506.3c2.7,0.2,5.2,0.8,7.6,1.6l-0.5,80.8c15-1.2,25.8-1.9,32.2-2.3c1.2,0,1.9,1.8,2.2,5.4
		c-0.1,3.9-0.7,5.9-1.8,5.9l-42.6,1.6l-0.9-0.8v-89.3C475.8,507.2,477.1,506.3,479.5,506.3z"/>
	<path class="st0" d="M118.9,24.7c0,0,57.4-20.7,149.7-24.3c0,0,73.5-4,139.4,30.4c0,0,61,31.6,73.5,81.5c0,0,7.3,20.4,9.7,73
		c0,0-6.2,131.2-25.8,166.8c0,0-13.2,31.9-68.8,40.1c0,0-48.8,12.3-132,11.4c0,0-99-1.4-149.1-35.6c0,0-61.1-41.5-81.6-134.6
		c0,0-12.7-65.7,7.3-143.7C41.4,89.8,54.9,37.1,118.9,24.7"/>
	<path class="st0" d="M118.9,24.7c0,0,57.4-20.7,149.7-24.3c0,0,73.5-4,139.4,30.4c0,0,61,31.6,73.5,81.5c0,0,7.3,20.4,9.7,73
		c0,0-6.2,131.2-25.8,166.8c0,0-13.2,31.9-68.8,40.1c0,0-48.8,12.3-132,11.4c0,0-99-1.4-149.1-35.6c0,0-61.1-41.5-81.6-134.6
		c0,0-12.7-65.7,7.3-143.7C41.4,89.8,54.9,37.1,118.9,24.7"/>
	<path class="st0" d="M130.1,70.6c0,0,104-39.6,183.8-38.1c0,0,77.3-0.9,117.7,43c0,0,36.2,43,37.1,95.4c0,0,4,63.4-31.3,134.1
		c0,0-19.4,42.4-41.6,57.9c0,0-8.8,7.9-38.1,9.8c0,0-60.8,5.5-131.7-10.4c0,0-68.2-13.1-111.1-59.5c0,0-33.8-33.2-39.2-88.7
		c0,0-2.2-20.4,0-39.3c0,0,2.1-14.9,2.4-26.8c0,0,0.3-25.9,9.7-46C87.8,102,97.5,77.9,130.1,70.6"/>
	<path class="st1" d="M130.1,70.6c0,0,104-39.6,183.8-38.1c0,0,77.3-0.9,117.7,43c0,0,36.2,43,37.1,95.4c0,0,4,63.4-31.3,134.1
		c0,0-19.4,42.4-41.6,57.9c0,0-8.8,7.9-38.1,9.8c0,0-60.8,5.5-131.7-10.4c0,0-68.2-13.1-111.1-59.5c0,0-33.8-33.2-39.2-88.7
		c0,0-2.2-20.4,0-39.3c0,0,2.1-14.9,2.4-26.8c0,0,0.3-25.9,9.7-46C87.8,102,97.5,77.9,130.1,70.6"/>
	<path class="st0" d="M161.5,95.9c0,0,63.2-19.7,94.5,58.4c0,0,9.8,32,17.2,57.7c0,0,5.8,22.5,30.1,50.4c0,0,16.9,18.2,37.8,20.6
		c0,0,11,2.1,17.8-2.5c0,0,9.8-7.6,20.2,2.9c0,0,9.8,11.2-3.7,24.1c0,0-8.6,9.1-29.5,10.1c0,0-47.6,4.3-82.6-55
		c0,0-9.2-13.8-19.6-43.3c0,0-4.3-21.8-27-61.5c0,0-19.3-42.1-59.2-37.8c0,0-12.9,0.6-10.4-9.5C147.1,110.6,150.5,99.6,161.5,95.9"
		/>
	<path class="st0" d="M161.5,95.9c0,0,63.2-19.7,94.5,58.4c0,0,9.8,32,17.2,57.7c0,0,5.8,22.5,30.1,50.4c0,0,16.9,18.2,37.8,20.6
		c0,0,11,2.1,17.8-2.5c0,0,9.8-7.6,20.2,2.9c0,0,9.8,11.2-3.7,24.1c0,0-8.6,9.1-29.5,10.1c0,0-47.6,4.3-82.6-55
		c0,0-9.2-13.8-19.6-43.3c0,0-4.3-21.8-27-61.5c0,0-19.3-42.1-59.2-37.8c0,0-12.9,0.6-10.4-9.5C147.1,110.6,150.5,99.6,161.5,95.9"
		/>
</g>
</svg>
