<svg enable-background="new 0 0 297 297" viewBox="0 0 297 297" xmlns="http://www.w3.org/2000/svg"><path d="m218.756 92.482c18.287 0 33.171-15.062 33.171-33.578 0-18.515-14.884-33.577-33.171-33.577-18.291 0-33.172 15.062-33.172 33.577 0 18.517 14.881 33.578 33.172 33.578z"/><path d="m238.739 126.934c0 15.06 12.251 27.314 27.313 27.314 15.059 0 27.313-12.254 27.313-27.314 0-15.062-12.254-27.316-27.313-27.316-15.062-.001-27.313 12.254-27.313 27.316z"/><path d="m203.484 147.292c1.088 0 2.121-.474 2.831-1.298s1.03-1.918.868-2.993c-3.201-21.317-21.634-37.713-43.826-37.713-14.343 0-27.428 6.797-35.646 17.958-4.464-1.213-9.319-1.257-13.822-.112-8.232-11.087-21.301-17.846-35.561-17.846-21.238 0-39.038 15.022-43.331 35.001-19.974 4.293-34.997 22.091-34.997 43.335 0 24.438 19.882 44.322 44.319 44.322 2.064 0 3.736-1.673 3.736-3.736v-47.029c0-16.481 13.407-29.889 29.888-29.889z"/><path d="m287.725 167.828h-209.738c-5.104 0-9.276 4.173-9.276 9.274v85.294c0 5.103 4.173 9.276 9.276 9.276h209.737c5.102 0 9.275-4.173 9.275-9.276v-85.294c.001-5.101-4.172-9.274-9.274-9.274z"/></svg>