<svg id="flat-svg-designs-icon-chart_1" xmlns="http://www.w3.org/2000/svg" width="200" height="200" viewBox="0 0 200 200">
  <circle id="Ellipse_3" data-name="Ellipse 3" cx="100" cy="100" r="100" fill="#dcdccf"/>
  <path id="Path_2" data-name="Path 2" d="M71.524,96.042a4.729,4.729,0,1,1-4.729,4.729,4.731,4.731,0,0,1,4.729-4.729Zm49.4-12.394a4.729,4.729,0,1,1-4.73,4.729,4.731,4.731,0,0,1,4.73-4.729ZM96.081,70.79a4.729,4.729,0,1,1-4.729,4.729,4.731,4.731,0,0,1,4.729-4.729ZM145.2,53.2a4.729,4.729,0,1,1-4.73,4.729A4.731,4.731,0,0,1,145.2,53.2Zm-16.186,53.583A3.786,3.786,0,0,0,125.222,103h-9.24a3.786,3.786,0,0,0-3.787,3.787v30.67a3.786,3.786,0,0,0,3.787,3.787h9.24a3.786,3.786,0,0,0,3.787-3.787ZM79.9,119.871a3.79,3.79,0,0,0-3.788-3.788h-9.24a3.788,3.788,0,0,0-3.787,3.788v17.586a3.786,3.786,0,0,0,3.787,3.787h9.24a3.788,3.788,0,0,0,3.788-3.787Zm73.67-42.633a3.786,3.786,0,0,0-3.787-3.787h-9.24a3.786,3.786,0,0,0-3.787,3.787v60.219a3.786,3.786,0,0,0,3.787,3.787h9.24a3.786,3.786,0,0,0,3.787-3.787V77.238Zm-52.9,13.685a3.786,3.786,0,0,1,3.787,3.787v42.747a3.786,3.786,0,0,1-3.787,3.787h-9.24a3.786,3.786,0,0,1-3.787-3.787V94.71a3.786,3.786,0,0,1,3.787-3.787h9.24Z" fill="rgba(35,31,32,0.25)" fill-rule="evenodd"/>
  <path id="Path_3" data-name="Path 3" d="M129.009,103.787A3.786,3.786,0,0,0,125.222,100h-9.24a3.786,3.786,0,0,0-3.787,3.787v30.67a3.786,3.786,0,0,0,3.787,3.787h9.24a3.786,3.786,0,0,0,3.787-3.787ZM79.9,116.871a3.79,3.79,0,0,0-3.788-3.788h-9.24a3.788,3.788,0,0,0-3.787,3.788v17.586a3.786,3.786,0,0,0,3.787,3.787h9.24a3.788,3.788,0,0,0,3.788-3.787Zm73.67-42.633a3.786,3.786,0,0,0-3.787-3.787h-9.24a3.786,3.786,0,0,0-3.787,3.787v60.219a3.786,3.786,0,0,0,3.787,3.787h9.24a3.786,3.786,0,0,0,3.787-3.787V74.238Zm-52.9,13.685a3.786,3.786,0,0,1,3.787,3.787v42.747a3.786,3.786,0,0,1-3.787,3.787h-9.24a3.786,3.786,0,0,1-3.787-3.787V91.71a3.786,3.786,0,0,1,3.787-3.787h9.24Z" fill="#bbc392" fill-rule="evenodd"/>
  <path id="Path_4" data-name="Path 4" d="M52.133,146.021V49.906a1.623,1.623,0,0,1,1.623-1.624h2.071a1.625,1.625,0,0,1,1.624,1.624v96.115H164.9a1.623,1.623,0,0,1,1.623,1.624v2.071a1.622,1.622,0,0,1-1.623,1.623H57.451v10.555a1.625,1.625,0,0,1-1.624,1.623H53.756a1.623,1.623,0,0,1-1.623-1.623V151.339H41.106a1.623,1.623,0,0,1-1.623-1.623v-2.071a1.625,1.625,0,0,1,1.623-1.624H52.133Z" fill="rgba(35,31,32,0.25)" fill-rule="evenodd"/>
  <path id="Path_5" data-name="Path 5" d="M52.133,143.021V46.906a1.623,1.623,0,0,1,1.623-1.624h2.071a1.625,1.625,0,0,1,1.624,1.624v96.115H164.9a1.623,1.623,0,0,1,1.623,1.624v2.071a1.622,1.622,0,0,1-1.623,1.623H57.451v10.555a1.625,1.625,0,0,1-1.624,1.623H53.756a1.623,1.623,0,0,1-1.623-1.623V148.339H41.106a1.623,1.623,0,0,1-1.623-1.623v-2.071a1.625,1.625,0,0,1,1.623-1.624H52.133Z" fill="#4e5c73" fill-rule="evenodd"/>
  <path id="Path_6" data-name="Path 6" d="M71.524,100.771,96.081,75.519l24.843,12.858L145.2,57.933" fill="none" stroke="rgba(35,31,32,0.25)" stroke-linecap="round" stroke-linejoin="round" stroke-miterlimit="1.5" stroke-width="2" fill-rule="evenodd"/>
  <path id="Path_7" data-name="Path 7" d="M71.524,97.771,96.081,72.519l24.843,12.858L145.2,54.933" fill="none" stroke="#4e5c73" stroke-linecap="round" stroke-linejoin="round" stroke-miterlimit="1.5" stroke-width="2" fill-rule="evenodd"/>
  <path id="Path_8" data-name="Path 8" d="M71.524,93.042a4.729,4.729,0,1,1-4.729,4.729,4.731,4.731,0,0,1,4.729-4.729Zm49.4-12.394a4.729,4.729,0,1,1-4.73,4.729,4.731,4.731,0,0,1,4.73-4.729ZM96.081,67.79a4.729,4.729,0,1,1-4.729,4.729,4.731,4.731,0,0,1,4.729-4.729ZM145.2,50.2a4.729,4.729,0,1,1-4.73,4.729A4.731,4.731,0,0,1,145.2,50.2Z" fill="#4e5c73" fill-rule="evenodd"/>
</svg>
