<svg id="flat-svg-designs-icon-money_1" xmlns="http://www.w3.org/2000/svg" width="200" height="200" viewBox="0 0 200 200">
  <circle id="Ellipse_5" data-name="Ellipse 5" cx="100" cy="100" r="100" fill="#dcdccf"/>
  <path id="Path_16" data-name="Path 16" d="M66.215,39.225a1.464,1.464,0,0,1,.443-2.262c.235-.115.467-.242.694-.378h0A12.981,12.981,0,0,1,80.541,36.5c1.932,1.122,4.1,2.378,6.212,3.609a20.241,20.241,0,0,0,21.195-.529l3.748-2.436a13.3,13.3,0,0,1,14-.3h0a10.671,10.671,0,0,0,8.164,1.127.408.408,0,0,1,.424.659c-2.651,3.071-9.881,11.418-12.68,14.649a4.618,4.618,0,0,0-1.128,3.025h0a15.8,15.8,0,0,0,7.679,13.555,54.606,54.606,0,1,1-56.547.13,16.394,16.394,0,0,0,7.9-14.02h.009a3.719,3.719,0,0,0-.909-2.437L66.215,39.225Z" fill="rgba(35,31,32,0.25)" fill-rule="evenodd"/>
  <path id="Path_17" data-name="Path 17" d="M66.215,36.225a1.464,1.464,0,0,1,.443-2.262c.235-.115.467-.242.694-.378h0A12.981,12.981,0,0,1,80.541,33.5c1.932,1.122,4.1,2.378,6.212,3.609a20.241,20.241,0,0,0,21.195-.529l3.748-2.436a13.3,13.3,0,0,1,14-.3h0a10.671,10.671,0,0,0,8.164,1.127.408.408,0,0,1,.424.659c-2.651,3.071-9.881,11.418-12.68,14.649a4.618,4.618,0,0,0-1.128,3.025h0a15.8,15.8,0,0,0,7.679,13.555,54.606,54.606,0,1,1-56.547.13,16.394,16.394,0,0,0,7.9-14.02h.009a3.719,3.719,0,0,0-.909-2.437L66.215,36.225Z" fill="#bbc392" fill-rule="evenodd"/>
  <path id="Path_18" data-name="Path 18" d="M127.576,59.972a5.052,5.052,0,0,0-5.052-5.052H76.833a5.052,5.052,0,0,0-5.052,5.052v0a5.052,5.052,0,0,0,5.052,5.052h45.691a5.052,5.052,0,0,0,5.052-5.052Z" fill="rgba(35,31,32,0.25)" fill-rule="evenodd"/>
  <path id="Path_19" data-name="Path 19" d="M127.576,56.972a5.052,5.052,0,0,0-5.052-5.052H76.833a5.052,5.052,0,0,0-5.052,5.052v0a5.052,5.052,0,0,0,5.052,5.052h45.691a5.052,5.052,0,0,0,5.052-5.052Z" fill="#c35b5d" fill-rule="evenodd"/>
  <path id="Path_20" data-name="Path 20" d="M95.819,90.316V85.751A3.305,3.305,0,0,1,99.261,82.6h1.478a3.305,3.305,0,0,1,3.442,3.149v4.6c10.849.869,17.365,5.047,19.485,12.583a8.724,8.724,0,0,1,.185,1.362c0,2.078-2.122,3.439-5.721,3.439-2.214,0-4.059-.788-4.613-2.866-1.569-5.374-6-8.025-13.748-8.025-9.134,0-13.747,2.579-13.747,7.81,0,4.873,3.321,6.879,15.408,9.1l3.137.573c16.147,2.938,21.59,7.6,21.59,17.2,0,8.366-8.442,14.585-21.688,15.614v4.043a3.305,3.305,0,0,1-3.442,3.149H99.548a3.305,3.305,0,0,1-3.442-3.149v-4.066C82.413,146,75.023,139.667,73.935,132.452c0-.215-.092-.5-.092-.717,0-2.293,2.491-3.511,5.9-3.511,2.214,0,4.244.788,4.613,3.153,1.015,6.162,6.366,9.243,16.146,9.243,9.227,0,15.5-3.439,15.5-9.1,0-5.016-2.491-7.81-14.762-10.032l-3.23-.573c-13.655-2.508-22.144-5.732-22.144-16.266,0-8,7.686-13.407,19.947-14.333Z" fill="rgba(35,31,32,0.25)" fill-rule="evenodd"/>
  <path id="Path_21" data-name="Path 21" d="M95.819,87.316V82.751A3.305,3.305,0,0,1,99.261,79.6h1.478a3.305,3.305,0,0,1,3.442,3.149v4.6c10.849.869,17.365,5.047,19.485,12.583a8.724,8.724,0,0,1,.185,1.362c0,2.078-2.122,3.439-5.721,3.439-2.214,0-4.059-.788-4.613-2.866-1.569-5.374-6-8.025-13.748-8.025-9.134,0-13.747,2.579-13.747,7.81,0,4.873,3.321,6.879,15.408,9.1l3.137.573c16.147,2.938,21.59,7.6,21.59,17.2,0,8.366-8.442,14.585-21.688,15.614v4.043a3.305,3.305,0,0,1-3.442,3.149H99.548a3.305,3.305,0,0,1-3.442-3.149v-4.066C82.413,143,75.023,136.667,73.935,129.452c0-.215-.092-.5-.092-.717,0-2.293,2.491-3.511,5.9-3.511,2.214,0,4.244.788,4.613,3.153,1.015,6.162,6.366,9.243,16.146,9.243,9.227,0,15.5-3.439,15.5-9.1,0-5.016-2.491-7.81-14.762-10.032l-3.23-.573c-13.655-2.508-22.144-5.732-22.144-16.266,0-8,7.686-13.407,19.947-14.333Z" fill="#4e5c73" fill-rule="evenodd"/>
  <circle id="Ellipse_6" data-name="Ellipse 6" cx="11.715" cy="11.715" r="11.715" transform="translate(126.157 147.828)" fill="rgba(35,31,32,0.25)"/>
  <circle id="Ellipse_7" data-name="Ellipse 7" cx="11.715" cy="11.715" r="11.715" transform="translate(142.897 118.464)" fill="rgba(35,31,32,0.25)"/>
  <circle id="Ellipse_8" data-name="Ellipse 8" cx="11.715" cy="11.715" r="11.715" transform="translate(39.284 43.668)" fill="rgba(35,31,32,0.25)"/>
  <g id="Group_6" data-name="Group 6">
    <circle id="Ellipse_9" data-name="Ellipse 9" cx="11.715" cy="11.715" r="11.715" transform="translate(39.284 40.668)" fill="#ce9a37"/>
    <circle id="Ellipse_10" data-name="Ellipse 10" cx="10.271" cy="10.271" r="10.271" transform="translate(40.728 42.112)" fill="none" stroke="rgba(35,31,32,0.25)" stroke-linecap="round" stroke-linejoin="round" stroke-miterlimit="1.5" stroke-width="1" stroke-dasharray="2 3 0 0"/>
  </g>
  <g id="Group_7" data-name="Group 7">
    <circle id="Ellipse_11" data-name="Ellipse 11" cx="11.715" cy="11.715" r="11.715" transform="translate(126.157 144.828)" fill="#ce9a37"/>
    <circle id="Ellipse_12" data-name="Ellipse 12" cx="10.271" cy="10.271" r="10.271" transform="translate(127.601 146.272)" fill="none" stroke="rgba(35,31,32,0.25)" stroke-linecap="round" stroke-linejoin="round" stroke-miterlimit="1.5" stroke-width="1" stroke-dasharray="2 3 0 0"/>
  </g>
  <g id="Group_8" data-name="Group 8">
    <circle id="Ellipse_13" data-name="Ellipse 13" cx="11.715" cy="11.715" r="11.715" transform="translate(142.897 115.464)" fill="#ce9a37"/>
    <circle id="Ellipse_14" data-name="Ellipse 14" cx="10.271" cy="10.271" r="10.271" transform="translate(144.341 116.908)" fill="none" stroke="rgba(35,31,32,0.25)" stroke-linecap="round" stroke-linejoin="round" stroke-miterlimit="1.5" stroke-width="1" stroke-dasharray="2 3 0 0"/>
  </g>
</svg>
