<svg id="flat-svg-designs-icon-chart_2" xmlns="http://www.w3.org/2000/svg" xmlns:xlink="http://www.w3.org/1999/xlink" width="200" height="200" viewBox="0 0 200 200">
  <defs>
    <clipPath id="clip-path">
      <path id="Path_12" data-name="Path 12" d="M97.194,33.469A5.181,5.181,0,0,0,91.681,28.3,73.4,73.4,0,1,0,170.46,105.8a4.079,4.079,0,0,0-4.074-4.277c-15.579-.016-69.192-.016-69.192-.016V33.469Z" clip-rule="evenodd"/>
    </clipPath>
  </defs>
  <circle id="Ellipse_4" data-name="Ellipse 4" cx="100" cy="100" r="100" fill="#dcdccf"/>
  <path id="Path_9" data-name="Path 9" d="M97.194,36.382a5.181,5.181,0,0,0-5.513-5.172,73.4,73.4,0,1,0,78.779,77.506,4.079,4.079,0,0,0-4.074-4.277c-15.579-.016-69.192-.016-69.192-.016V36.382Z" fill="rgba(35,31,32,0.25)" fill-rule="evenodd"/>
  <path id="Path_10" data-name="Path 10" d="M97.194,33.469A5.181,5.181,0,0,0,91.681,28.3,73.4,73.4,0,1,0,170.46,105.8a4.079,4.079,0,0,0-4.074-4.277c-15.579-.016-69.192-.016-69.192-.016V33.469Z" fill="#4e5c73" fill-rule="evenodd"/>
  <g id="Group_5" data-name="Group 5" clip-path="url(#clip-path)">
    <path id="Path_11" data-name="Path 11" d="M170.472,101.51v3.567c0,.034.048,2.437-.008,3.523a73.388,73.388,0,0,1-21.376,47.716l-51.894-51.94V101.51h73.278Z" fill="rgba(35,31,32,0.25)" fill-rule="evenodd"/>
  </g>
  <path id="Path_13" data-name="Path 13" d="M171.2,98.312a4.993,4.993,0,0,0,4.984-5.3,73.446,73.446,0,0,0-67.929-67.9,4.968,4.968,0,0,0-5.272,4.959c-.025,13.518-.025,49.9-.025,63.248a4.994,4.994,0,0,0,4.993,4.994H171.2Z" fill="rgba(35,31,32,0.25)" fill-rule="evenodd"/>
  <path id="Path_14" data-name="Path 14" d="M171.2,95.4a4.992,4.992,0,0,0,4.984-5.3,73.446,73.446,0,0,0-67.929-67.9,4.968,4.968,0,0,0-5.272,4.959c-.025,13.518-.025,49.9-.025,63.248a4.993,4.993,0,0,0,4.993,4.993H171.2Z" fill="#ce9a37" fill-rule="evenodd"/>
  <path id="Path_15" data-name="Path 15" d="M149.088,153.4a73.389,73.389,0,0,0,21.369-47.584,4.088,4.088,0,0,0-4.081-4.3c-15.591-.008-69.182-.008-69.182-.008Z" transform="translate(3)" fill="#c35b5d" fill-rule="evenodd"/>
</svg>
