<svg xmlns="http://www.w3.org/2000/svg" width="1478" height="1479.363" viewBox="0 0 1478 1479.363">
  <g id="logoSolo" transform="translate(-46.593 712.541)">
    <path id="Path_22" data-name="Path 22" d="M729.53-711.356c-137.548,11.608-264.8,57.6-372.562,134.7C203.65-466.924,97.642-304.845,60.626-124.368,48.58-65.231,46.609-43.766,46.609,26.76c-.219,67.46,1.752,90.457,12.046,142.367C109.469,427.8,295.422,641.784,542.92,726.546c76.44,26.283,139.738,37.672,222.092,39.863,55.194,1.533,93.962-1.1,144.338-9.637C1217.3,705.3,1462.39,461.087,1514.737,153.795c8.1-46.871,9.856-72.5,9.856-129.225-.219-72.717-5.257-114.769-22.122-180.7-25.626-100.533-69.212-188.8-135.577-274.877-24.969-32.416-91.115-98.561-123.53-123.53-114.112-88.048-238.3-138.643-378.914-154.632C835.977-712.232,756.47-713.765,729.53-711.356Zm14.237,43.805C710.256-631.193,682-597.9,668.86-579.5c-7.228,10.513-13.58,18.836-14.018,18.4-.438-.219.438-11.389,1.752-24.531s1.971-38.329,1.533-56.07l-.657-31.978,23-3.5c21.465-3.5,55.195-6.79,72.059-7.666l7.228-.219ZM872.773-679.6c12.484,1.533,23,3.285,23.436,3.724s1.1,22.122,1.533,48.186c.438,26.283,0,46.871-.657,46s-7.666-9.856-15.332-20.15a689.222,689.222,0,0,0-56.728-66.365l-16.208-17.3,20.588,1.533C840.8-683.1,860.288-681.131,872.773-679.6Zm-49.281,48.186q77.535,96.262,67.241,161.422c-4.38,28.035-18.617,57.6-44.9,92.648-17.741,23.655-57.385,68.993-60.232,68.993-3.066,0-40.52-44.243-57.6-68.117s-39.425-67.46-44.243-86.3c-14.894-58.918,5.257-106.884,80.6-190.99l20.15-22.56L795.238-664.7C801.151-658.571,813.855-643.458,823.492-631.412ZM954.25-664.485c60.889,14.237,128.13,41.4,186.829,75.345,10.951,6.133,17.96,11.827,19.274,15.113,2.19,6.133,2.628,76.878.657,101.847l-1.533,16.427-27.6-4.819c-53.442-9.637-90.677-20.807-122.873-37.453-58.261-30.006-81.039-69.65-84.763-147.4-1.314-25.845-1.1-26.94,2.847-25.845C929.281-670.617,941.547-667.551,954.25-664.485ZM631.188-643.458c-3.942,63.079-19.493,98.562-54.537,126.378-32.635,25.626-83.668,44.024-157.26,57.166l-23.217,4.161-1.314-11.17c-2.409-22.778-3.723-72.935-1.971-86.734l1.752-14.237,21.9-13.58c52.347-32.854,121.121-61.984,188.362-80.382C635.349-670.179,633.159-671.713,631.188-643.458Zm580.2,100.752L1233.07-526.5l-1.314,56.071c-1.1,48.843-4.38,93.3-7.009,95.933-1.1,1.314-61.327-7.666-87.61-12.923-86.953-17.3-147.623-47.31-177.849-88.048-9.637-12.923-24.969-42.491-28.035-54.1-1.314-4.381-.219-3.723,4.819,3.285,16.208,22.121,47.967,44.024,85.639,59.356,35.92,14.456,70.964,23,144.338,35.044,12.7,1.971,15.332-3.285,17.084-35.482,1.1-15.551,1.752-43.367,1.752-61.765,0-23.874.657-32.854,2.409-31.54C1188.608-559.571,1199.34-551.467,1211.386-542.706ZM372.738-457.943c2.19,28.254,2.409,28.254,38.548,22.56,36.358-5.914,71.183-14.018,96.371-21.9,45.776-14.894,92.648-43.148,109.294-66.584,4.161-5.476,7.666-10.075,8.1-10.075,1.752,0-11.17,30.883-17.522,41.4-9.2,15.77-31.978,40.082-48.624,51.69-27.378,19.493-66.146,35.482-113.674,47.091-29.788,7.447-86.515,17.084-104.256,17.96l-12.046.657L326.3-403.625c-1.314-15.77-3.066-46.434-4.161-68.555-1.314-34.387-1.1-40.3,1.752-42.71,1.752-1.533,12.484-9.856,23.874-18.836l20.588-15.989,1.314,35.482C370.547-494.74,371.861-469.333,372.738-457.943ZM662.727-454c11.827,43.148,45.557,96.152,98.781,155.508,8.761,9.637,17.741,18.179,20.15,19.274,6.352,2.409,11.17-1.314,34.387-26.5,68.117-73.593,98.343-128.787,98.781-180.039.219-13.58.219-14.018,3.066-7.666,11.389,26.721,14.018,69.869,5.914,100.533-12.266,46-47.748,98.124-112.36,164.05l-26.94,27.6-24.531-26.721c-34.825-38.11-51.252-58.261-70.526-86.953-46.433-69.431-58.042-123.969-38.986-181.353l4.818-14.675,1.314,19.712A223.933,223.933,0,0,0,662.727-454Zm648.316,1.971c52.566,58.918,82.135,102.942,115.427,171.059,35.263,72.5,56.29,144.557,67.022,228.882,4.162,34.387,3.724,131.853-1.1,166.459q-32.525,236.548-194.276,405.854c-12.265,12.7-26.94,27.378-32.854,32.2l-10.513,8.761,1.1-8.1c1.314-9.637-2.628-83.668-6.352-122-1.752-17.3-3.723-26.94-5.914-29.13-3.723-3.942-17.3-3.066-62.86,3.723-115.865,17.3-188.581,46.871-231.51,94.181L937.385,513l-1.314-27.816c-1.314-33.292-5.914-51.033-21.245-83.449-23-47.967-69.869-109.732-124.406-163.393-14.894-14.675-18.4-17.084-23-15.77-6.352,1.533-56.728,53.88-86.953,90.02-52.566,62.86-76.659,114.55-76.659,164.05v19.493l-9.418-8.761c-41.615-38.329-111.046-64.613-213.331-80.6-49.281-7.666-66.8-8.98-70.307-5.038-3.066,3.942-8.542,58.7-10.513,107.98l-1.533,36.358L280.09,527.89c-72.716-71.621-135.358-172.811-169.526-273.344C83.186,173.507,72.235,100.352,74.425,8.581c2.409-110.17,26.283-204.789,76-302.693,33.949-66.8,83.23-134.7,134.044-184.638l14.237-13.8,1.533,33.511c2.628,58.918,7.447,103.161,11.827,106.446s15.77,2.628,61.765-4.161c117.836-17.522,195.809-49.719,235.014-97.466l9.2-10.951.438,24.093c.876,70.745,42.272,143.462,140.176,245.966,10.732,10.951,21.684,20.807,24.531,21.684,4.6,1.314,9.2-2.409,37.234-31.1C876.277-261.478,907.6-301.559,927.967-342.3c16.865-33.292,21.9-50.814,23.436-80.382l1.314-23.436L963.23-436.7c35.7,32.2,92.648,55.852,173.906,72.5,20.369,4.161,89.362,14.237,97.9,14.237,10.075,0,11.827-4.161,14.675-34.387,2.847-30.883,6.571-91.553,6.79-109.732V-505.91l16.427,14.675C1281.913-483.131,1299.216-465.39,1311.043-452.03ZM815.607,299.447c86.515,99.438,113.455,172.811,89.8,243.118L900.151,557.9l-1.314-18.836c-4.38-56.947-42.71-125.721-108.856-195.371-14.675-15.551-17.3-17.3-22.341-16.208-5.695,1.533-41.834,39.863-66.365,70.526-40.739,51.033-60.013,94.4-60.451,135.577v17.741l-5.257-14.675c-19.055-54.318-9.418-107.542,29.568-165.583,18.4-27.159,32.854-44.9,70.526-85.42l33.073-35.92,12.922,12.922C788.886,269.659,804.218,286.086,815.607,299.447Zm-10.951,96.371c47.529,58.7,70.745,107.761,70.745,149.594,0,45.557-20.807,84.763-81.477,153.1-11.827,13.58-22.56,24.75-23.655,24.75-2.847,0-32.635-34.387-50.376-58.042-28.911-38.548-46.214-72.059-53.442-103.38-12.046-53.661,10.075-102.723,83.668-185.077L769.174,355.3l10.513,11.608C785.6,373.039,796.771,386.181,804.656,395.818ZM374.49,428.672C511.381,450.136,582.126,486.932,613.447,553.3c12.7,26.5,12.046,27.6-5.476,9.637-35.482-35.7-91.991-60.013-175-74.907-46.214-8.323-51.471-8.761-55.194-4.819-3.942,3.942-6.133,25.407-8.1,82.792l-1.314,38.767-21.9-17.522c-12.046-9.637-22.779-19.712-23.655-22.341-3.066-7.447,2.409-127.254,6.133-139.081C330.247,422.1,334.846,422.539,374.49,428.672ZM1226.5,431.3c3.285,21.465,6.133,77.754,5.476,112.36l-.657,38.329-19.712,14.894c-30.226,22.779-27.159,25.188-27.159-19.274,0-56.728-2.19-88.048-6.79-93.743l-3.723-4.6-30.445,5.038c-100.095,16.208-162.079,41.615-199.094,81.7l-14.456,15.77,5.476-14.894c26.721-71.183,97.028-113.455,223.625-134.7C1226.28,420.787,1224.966,420.787,1226.5,431.3ZM441.95,513.216c57.166,11.17,103.38,29.13,133.168,51.471,35.92,26.94,52.566,65.927,56.29,131.634,1.314,22.56,1.1,26.94-1.533,26.064-1.752-.657-12.922-3.5-24.969-6.571-62.2-15.77-135.8-47.091-190.771-81.477L394.2,621.852l-1.533-22.341c-1.533-21.026-.438-57.166,2.19-83.668l1.1-11.389,7.009,1.1C406.906,506.207,424.428,509.711,441.95,513.216ZM1161.01,521.1c1.752,21.026,1.752,85.858,0,100.752l-1.533,11.17-23.217,13.142c-59.137,33.292-114.332,55.633-177.63,71.4-17.084,4.381-31.978,7.885-33.073,7.885-3.066,0-2.409-38.11,1.314-61.327,8.98-59.794,31.54-91.772,83.23-118.055,31.978-16.427,95.5-34.168,148.061-41.615C1158.82,504.236,1160.134,511.682,1161.01,521.1ZM899.275,625.795c-1.314,9.637-1.971,37.015-1.533,60.889.657,41.834.438,43.367-3.723,44.243-13.142,2.847-43.148,5.914-71.183,7.009l-31.759,1.314,8.761-10.075c4.819-5.476,19.712-21.684,32.854-36.139,24.969-26.721,39.863-45.338,57.6-70.745,5.695-8.1,10.513-14.456,10.732-14.237C901.246,608.054,900.37,616.158,899.275,625.795Zm-193.4,64.613c9.856,11.389,21.684,24.312,26.064,28.473A113.09,113.09,0,0,1,744.424,732.9l4.6,6.133-16.208-1.314c-19.055-1.752-64.613-7.666-70.964-9.2-4.161-1.1-4.381-2.847-4.381-49.719V629.956l15.113,19.931C680.906,660.62,695.8,679.018,705.875,690.407Z" transform="translate(0 0)" fill="#bbc392"/>
  </g>
</svg>
